<?xml version="1.0" encoding="utf-8" ?><svg xmlns="http://www.w3.org/2000/svg" xmlns:xlink="http://www.w3.org/1999/xlink" width="1024" height="1024" viewBox="0 0 1024 1024"><path fill="white" d="M0 0L1024 0L1024 1024L0 1024L0 0Z"/><path fill="#0029FE" d="M499.898 96.9272C503.734 97.0049 549.633 115.908 557.017 118.81L711.495 179.4L828.901 224.494C847.694 231.737 873.223 240.824 890.977 249.037L892.021 699.467C888.549 702.194 882.625 705.628 878.74 708.045C871.364 712.592 864.042 717.225 856.775 721.943C825.117 742.598 793.234 762.905 761.131 782.861L633.827 863.717C602.424 884.079 570.764 904.042 538.856 923.602C535.675 925.53 528.977 930.004 525.633 930.075C499.867 916.105 473.703 901.12 448.063 886.723C380.167 848.843 312.511 810.533 245.101 771.794L161.186 724.101C155.798 721.014 135.579 710.207 132.086 706.89L133.042 263.494C138.152 260.377 155.812 253.188 162.396 250.241L224.861 221.939L422.706 132.161C448.406 120.374 474.659 109.528 499.898 96.9272Z"/><path fill="#0103FD" d="M319.527 353.437C325.275 355.155 334.885 359.784 340.696 362.366L379.52 379.502L443.883 407.551C468.082 417.753 492.213 428.117 516.274 438.642C517.424 440.797 516.927 481.726 516.936 486.928L516.863 663.807L517.008 695.996C517.017 700.752 517.401 710.37 516.275 714.616L516.51 712.814C514.973 717.118 515.329 719.516 515.5 724.125C515.521 725.293 515.646 724.8 515.284 725.637C514.888 710.698 517.07 712.766 504.318 706.252L477.118 692.158C440.716 673.051 404.175 654.211 367.498 635.639C357.822 630.777 348.073 626.061 338.253 621.495C334.6 619.756 321.085 613.908 320.979 611.758C320.44 600.844 320.847 579.095 320.848 568.751L320.921 416.247C320.883 399.074 321.15 381.796 320.184 364.658C320.013 361.623 320.147 356.06 319.527 353.437Z"/><path fill="#0029FE" d="M322.275 355.893C324.309 356.581 326.408 357.731 328.404 358.587C344.328 365.409 360.039 372.845 375.936 379.701L515.289 439.928C514.538 462.63 515.168 488.845 515.182 511.745L515.149 658.947C515.072 675.432 515.353 691.587 515.023 708.105L514.945 708.608L514.276 709.054C510.786 708.282 485.365 694.912 480.29 692.29L397.725 649.605C384.427 642.814 370.823 635.982 357.518 629.236C349.267 625.052 329.864 616.705 323.33 611.542C322.301 607.289 322.582 595.104 322.572 589.949L322.541 553.92L322.668 420.572L322.546 381.267C322.543 373.357 322.812 363.664 322.275 355.893Z"/><path fill="white" d="M156.683 284.988C205.524 305.394 254.144 326.327 302.533 347.782L302.069 607.853L250.229 635.616C226.167 648.242 202.421 661.612 178.42 674.366C170.938 678.341 163.224 682.488 156.049 686.972L156.378 396.982C156.563 359.861 156.021 322.022 156.683 284.988Z"/><path fill="white" d="M866.524 274.016L866.735 274.222C867.276 275.836 867.114 288.643 867.156 291.651C867.477 317.971 867.605 344.293 867.539 370.615L867.973 675.944C836.089 660.23 803.017 645.826 771.126 630.218L725.13 608.507L724.596 345.854L866.524 274.016Z"/><path fill="white" d="M311.335 629.443C379.627 663.741 447.509 698.85 514.968 734.76L514.96 897.418C486.005 880.609 456.867 864.116 427.552 847.944C342.865 800.637 258.526 752.71 174.542 704.166L252.947 661.074C272.615 650.421 291.785 640.448 311.335 629.443Z"/><path fill="white" d="M713.586 629.079C759.009 651.748 807.018 672.367 852.31 695.528L623.721 841.698C616.023 846.273 608.105 851.74 600.422 856.537L538.022 895.334L537.518 731.262L713.586 629.079Z"/><path fill="white" d="M511.944 124.818L849.28 256.702C834.036 264.72 817.726 272.623 802.27 280.474L709.361 326.935C657.544 305.828 604.789 286.368 552.834 265.556C539.325 260.144 524.769 254.752 511.632 248.62C511.445 207.352 511.549 166.084 511.944 124.818Z"/><path fill="white" d="M488.284 126.991C488.476 127.24 488.668 127.489 488.86 127.738C489.12 157.554 489.041 222.371 489.059 249.622C469.148 260.107 445.078 271.295 424.613 281.167C401.68 292.365 378.514 303.077 355.13 313.297C343.717 318.412 331.177 324.352 319.695 329.032C309.914 325.558 298.009 320.194 288.24 316.116L220.792 287.504C206.653 281.388 190.673 275.359 176.917 268.833L488.284 126.991Z"/><path fill="#0103FD" d="M535.511 438.596C551.853 430.915 705.035 351.769 707.337 352.367C706.274 353.885 706.813 360.902 706.718 363.25C706.04 379.988 706.086 396.746 706.116 413.494L706.116 563.966C706.123 571.941 707.639 608.803 705.534 613.785L704.859 613.643C704.185 611.793 704.318 610.742 704.29 608.735C704.814 600.671 704.618 590.144 704.678 581.874L704.713 522.351C704.832 466.938 705.097 410.321 704.273 354.963C663.921 375.135 623.69 395.548 583.584 416.202C568.845 423.662 551.98 432.738 537.195 439.572C536.539 468.344 537.302 498.823 537.289 527.748L537.123 679.654C536.848 683.962 536.677 705.77 537.825 708.754C537.106 709.824 537.407 709.568 536.386 710.182C534.969 708.169 535.541 675.21 535.544 670.54L535.586 597.75L535.624 492.53C535.595 474.724 535.215 456.348 535.511 438.596Z"/><path fill="#0103FD" d="M550.792 283.672L551.743 282.724C587.08 295.788 621.639 311.356 657.165 323.99C668.2 327.914 679.701 333.97 690.735 337.345C657.216 354.802 623.508 371.894 589.618 388.619L544.997 410.54C537.92 414.061 530.862 417.139 524.029 421.12C518.039 419.213 506.973 413.865 500.835 411.176L463.011 394.963C429.501 380.862 396.164 366.357 363.005 351.449C359.432 349.851 339.869 341.792 338.682 340.264L339.225 339.624L339.735 339.64L339.754 339.354L339.944 339.433C342.957 341.02 346.083 342.439 349.198 343.814C369.587 352.82 389.886 361.891 410.407 370.592C448.24 386.62 485.963 402.903 523.575 419.441C546.372 407.139 572.536 395.51 595.942 383.653C616.987 372.911 638.097 362.299 659.273 351.818C667.783 347.559 678.921 341.36 687.179 337.72C667.976 328.955 647.005 321.886 627.448 314.16C601.868 304.055 576.545 293.438 550.792 283.672Z"/></svg>