<?xml version="1.0" encoding="UTF-8" standalone="no"?>
<svg
   width="848.71875"
   height="833.69678"
   viewBox="0 0 848.71875 833.69678"
   version="1.1"
   id="svg21"
   sodipodi:docname="money.svg"
   inkscape:version="1.3.2 (091e20e, 2023-11-25, custom)"
   xmlns:inkscape="http://www.inkscape.org/namespaces/inkscape"
   xmlns:sodipodi="http://sodipodi.sourceforge.net/DTD/sodipodi-0.dtd"
   xmlns="http://www.w3.org/2000/svg"
   xmlns:svg="http://www.w3.org/2000/svg">
  <defs
     id="defs21" />
  <sodipodi:namedview
     id="namedview21"
     pagecolor="#ffffff"
     bordercolor="#000000"
     borderopacity="0.25"
     inkscape:showpageshadow="2"
     inkscape:pageopacity="0.0"
     inkscape:pagecheckerboard="0"
     inkscape:deskcolor="#d1d1d1"
     inkscape:zoom="0.40534344"
     inkscape:cx="625.39559"
     inkscape:cy="530.41441"
     inkscape:window-width="1440"
     inkscape:window-height="830"
     inkscape:window-x="-6"
     inkscape:window-y="-6"
     inkscape:window-maximized="1"
     inkscape:current-layer="svg21" />
  <g
     id="g21"
     transform="translate(-72.334517,-98.964474)">
    <path
       d="m 631.985,99.1851 c 21.667,-2.3672 33.849,14.7919 47.565,28.5829 l 32.151,32.26 100.805,100.848 64.619,64.612 19.264,19.272 c 10.223,10.207 18.784,17.03 19.28,32.611 0.233,6.854 -1.61,13.619 -5.287,19.408 -4.272,6.655 -20.493,21.74 -26.893,28.297 -19.507,19.985 -40.295,39.507 -59.499,59.773 0.518,-0.036 1.038,-0.057 1.557,-0.065 17.313,-0.371 35.153,0.445 52.349,-0.036 26.041,-0.728 42.901,13.705 43.123,40.483 l -0.032,217.666 0.03,64.748 c 0.018,9.047 0.076,18.164 -0.008,27.182 -0.112,12.054 -2.532,21.174 -11.122,29.897 -11.889,12.073 -24.128,11.289 -39.65,11.297 l -28.863,-0.007 -98.533,-0.015 -334.432,-0.006 -6.06,6.078 -25.439,25.54 c -6.258,6.277 -14.662,15.687 -21.82,20.173 -12.47,7.488 -32.418,6.425 -43.115,-3.682 -16.584,-15.668 -32.003,-32.457 -48.499,-48.082 l -96.339,-0.006 c -12.777,0 -25.594,0.173 -38.361,-0.164 -9.64,-0.254 -17.909,-4.276 -24.702,-10.933 C 92.8513,853.92 93.3909,841.295 93.4289,826.878 l 0.0629,-26.399 0.0192,-97.671 c -9.7729,-10.972 -20.8729,-19.727 -21.1708,-36.023 -0.2931,-16.031 10.803,-25.473 21.16,-35.976 l -0.0574,-74.065 c -0.0044,-11.043 -0.0255,-22.099 0.0374,-33.144 0.0626,-10.984 3.1264,-19.911 10.9788,-27.818 4.923,-5.02 11.184,-8.519 18.039,-10.082 7.009,-1.532 28.786,-0.945 37.253,-0.941 l 73.915,-0.07 c 10.608,-10.073 21.682,-21.575 32.078,-31.966 l 58.803,-58.77 185.652,-185.682 67.519,-67.408 20.926,-21.06 c 11.809,-11.871 16.132,-18.452 33.341,-20.6179 z"
       id="path2" />
    <path
       fill="#59a047"
       d="m 131.908,502.724 c 14.723,-0.385 31.221,-0.035 46.092,-0.036 l 90.949,-0.004 275.742,0.009 h 225.015 l 72.526,-0.024 c 12.993,-0.01 26.026,-0.112 39.017,0.086 4.872,0.075 8.91,0.508 12.977,3.465 3.452,2.287 7.746,8.158 8.025,12.554 0.792,12.514 0.459,26.866 0.457,39.305 l -0.018,84.071 -0.017,133.304 0.049,39.931 c 0.053,18.045 4.04,39.366 -19.706,42.589 l -483.073,0.075 -179.373,0.005 -57.87,0.006 c -10.59,0.008 -21.426,0.398 -31.972,-0.143 -21.404,-1.098 -19.133,-21.778 -19.138,-36.556 l 0.005,-30.532 0.017,-96.639 -0.009,-115.543 -0.023,-36.699 c -0.013,-17.417 -3.247,-37.352 20.328,-39.224 z"
       id="path3" />
    <path
       d="m 496.522,538.459 c 79.193,-5.947 148.226,53.396 154.235,132.584 C 656.765,750.23 597.476,819.31 518.293,825.38 439.023,831.457 369.85,772.089 363.835,692.814 357.82,613.538 417.243,544.412 496.522,538.459 Z"
       id="path4" />
    <path
       fill="#68c754"
       d="m 494.605,556.647 c 69.152,-7.033 130.926,43.29 138.021,112.436 7.095,69.145 -43.172,130.965 -112.312,138.122 -69.227,7.166 -131.142,-43.179 -138.246,-112.413 -7.104,-69.233 43.297,-131.103 112.537,-138.145 z"
       id="path5" />
    <path
       d="m 505.005,590.57 c 0.784,-0.045 1.569,-0.067 2.354,-0.064 11.526,0.148 9.331,13.331 9.193,21.32 17.815,2.723 30.818,10.837 34.379,29.968 0.711,3.823 -0.361,8.769 -3.018,11.708 -1.396,1.543 -3.575,3.001 -5.822,2.929 -13.297,-1.439 -5.929,-14.731 -15.379,-22.329 -6.86,-5.516 -15.241,-5.659 -23.404,-5.274 -6.496,0.306 -12.607,2.027 -16.556,7.093 -4.335,5.561 -5.367,9.339 -4.588,16.36 1.81,16.333 22.079,17.415 34.526,21.283 7.8,2.087 14.61,4.533 21.164,9.388 15.918,11.744 17.879,36.59 5.877,51.771 -6.785,8.583 -16.47,13.34 -27.204,14.566 0.216,9.742 2.292,18.871 -9.872,20.586 -10.282,-1.848 -8.531,-11.628 -8.474,-19.68 -21.127,-3.121 -34.22,-15.927 -34.859,-37.711 -0.172,-5.868 3.135,-10.849 9.416,-10.575 13.652,0.596 6.275,18.393 14.635,25.147 6.252,5.342 13.685,5.324 21.428,5.27 13.748,-0.097 26.279,-9.05 24.309,-24.102 -2.217,-16.942 -27.983,-18.79 -41.223,-23.373 -15.267,-5.284 -25.94,-14.125 -28.044,-31.06 -1.35,-10.047 1.383,-20.216 7.587,-28.233 7.042,-9.017 15.761,-12.954 26.86,-14.261 -0.255,-8.81 -2.322,-16.256 6.715,-20.727 z"
       id="path6" />
    <path
       d="m 658.75,551.173 c 14.17,-0.581 30.764,-0.173 45.073,-0.17 l 81.604,0.019 40.071,-0.047 c 6.589,-0.011 14.226,-0.332 20.745,0.415 2.884,0.33 4.612,3.031 6.131,5.256 0.303,2.254 0.397,4.815 0.418,7.098 l 0.06,158.905 0.034,50.607 c 0.019,9.04 0.221,18.191 -0.235,27.202 0.226,1.64 -2.114,6.34 -3.744,6.949 -6.632,2.477 -21.456,1.596 -27.981,1.595 l -38.9,0.001 -119.651,-0.002 c -5.336,-0.159 -9.74,-2.488 -10.02,-8.373 -0.136,-2.597 0.826,-5.133 2.65,-6.987 3.851,-3.852 19.801,-2.621 25.672,-2.611 l 36.297,0.006 118.344,0.025 -0.078,-222.092 -123.066,-0.032 c -8.09,0.002 -48.917,0.77 -54.092,-0.925 -2.139,-0.723 -3.894,-2.279 -4.866,-4.316 -2.632,-5.588 0.304,-10.186 5.534,-12.523 z"
       id="path7" />
    <path
       d="m 168.457,551.091 c 11.958,-0.418 25.722,-0.093 37.784,-0.094 l 70.487,-10e-4 49.904,0.038 c 7.938,-10e-4 15.898,-0.237 23.815,-0.066 5.685,0.123 9.835,2.739 9.807,8.803 0.037,4.856 -3.546,8.352 -8.297,8.815 -6.752,0.659 -13.719,0.41 -20.517,0.393 l -33.294,-0.031 -119.599,-0.008 0.062,222.571 24.641,-0.012 109.357,10e-4 c 11.104,0.003 22.202,0.051 33.308,-0.178 4.597,-0.095 11.888,0.566 14.31,5.23 2.001,2.803 -2.075,10.901 -4.998,11.518 -8.592,1.815 -23.324,0.968 -31.976,0.961 l -54.57,-0.004 c -31.769,-0.001 -63.726,0.766 -95.476,0.016 -2.005,-0.048 -4.522,0.079 -6.39,-0.732 -2.328,-1.01 -4.133,-2.567 -4.966,-5.012 -1.731,-5.084 -0.662,-72.412 -0.661,-82.066 l -0.007,-103.712 c -0.009,-18.506 -0.068,-37.014 0.029,-55.518 0.032,-6.134 1.269,-8.888 7.247,-10.912 z"
       id="path8" />
    <path
       d="m 292.301,647.589 c 18.186,-2.252 34.744,10.693 36.947,28.886 2.202,18.192 -10.789,34.715 -28.988,36.867 -18.128,2.144 -34.572,-10.786 -36.766,-28.908 -2.194,-18.122 10.691,-34.602 28.807,-36.845 z"
       id="path9" />
    <path
       fill="#59A047"
       d="m 292.907,665.147 c 5.498,-1.292 11.266,0.469 15.105,4.611 3.839,4.143 5.157,10.028 3.452,15.412 -1.705,5.384 -6.171,9.437 -11.694,10.615 -8.418,1.794 -16.711,-3.524 -18.593,-11.923 -1.881,-8.399 3.351,-16.747 11.73,-18.715 z"
       id="path10"
       style="fill:#68c754;fill-opacity:1" />
    <path
       d="m 714.032,647.682 c 18.131,-2.014 34.458,11.06 36.456,29.193 1.998,18.132 -11.091,34.448 -29.226,36.429 -18.111,1.979 -34.401,-11.09 -36.396,-29.199 -1.995,-18.11 11.059,-34.411 29.166,-36.423 z"
       id="path11" />
    <path
       fill="#59A047"
       d="m 714.038,665.185 c 5.482,-1.274 11.227,0.498 15.039,4.64 3.812,4.141 5.103,10.012 3.379,15.371 -1.723,5.358 -6.194,9.377 -11.706,10.52 -8.381,1.738 -16.602,-3.588 -18.44,-11.949 -1.839,-8.36 3.39,-16.644 11.728,-18.582 z"
       id="path12"
       style="fill:#68c754;fill-opacity:1" />
    <path
       d="m 776.847,670.194 c 7.29,-0.093 18.274,-0.401 25.256,0.448 2.337,1.63 3.951,3.066 4.828,5.909 0.698,2.203 0.442,4.598 -0.706,6.604 -1.665,2.846 -4.089,3.982 -7.134,4.717 -7.685,0.166 -21.355,1.439 -27.606,-2.377 -6.892,-4.207 -2.757,-13.932 5.362,-15.301 z"
       id="path13" />
    <path
       d="m 215.825,670.227 c 6.534,-0.073 20.964,-1.124 25.77,1.759 7.206,4.322 4.301,14.019 -4.412,15.982 -6.863,0.072 -21.709,1.244 -26.869,-2.206 -6.872,-4.593 -3.409,-14.287 5.511,-15.535 z"
       id="path14" />
    <path
       fill="#59a047"
       d="m 634.259,202.013 c 4.063,3.473 13.172,13.134 17.258,17.231 l 35.604,35.681 124.028,124.646 c -35.338,34.609 -70.012,70.451 -105.274,105.217 -23.813,-0.417 -48.642,-0.128 -72.5,-0.077 -0.588,0.028 -3.358,0.183 -3.533,-0.443 -3.046,-10.884 -5.479,-20.069 -10.42,-30.341 -11.516,-23.901 -29.368,-44.184 -51.614,-58.64 -32.468,-20.794 -70.82,-26.763 -108.256,-18.538 7.686,-7.056 15.639,-15.324 23.046,-22.77 l 36.603,-36.767 z"
       id="path15" />
    <path
       d="m 652.499,325.565 c 21.24,-2.387 40.383,12.92 42.727,34.164 2.343,21.245 -13.002,40.357 -34.251,42.657 -21.188,2.294 -40.234,-12.998 -42.571,-34.181 -2.337,-21.183 12.917,-40.26 34.095,-42.64 z"
       id="path16" />
    <path
       fill="#59A047"
       d="m 651.832,344.176 c 10.971,-2.698 22.042,4.049 24.672,15.037 2.63,10.987 -4.186,22.016 -15.19,24.577 -10.907,2.539 -21.818,-4.204 -24.425,-15.095 -2.607,-10.891 4.068,-21.844 14.943,-24.519 z"
       id="path17"
       style="fill:#68c754;fill-opacity:1" />
    <path
       fill="#59a047"
       d="m 631.853,118.112 c 1.177,-0.096 2.357,-0.14 3.537,-0.13 3.843,0.042 8.272,0.981 11.177,3.566 9.873,8.787 19.457,18.843 28.823,28.211 l 55.647,55.647 111.356,111.467 c 15.834,15.912 31.783,31.751 47.571,47.715 4.29,4.338 6.723,7.912 6.547,14.382 -0.176,3.177 -0.982,6.571 -2.99,9.115 -4.007,5.076 -8.807,9.569 -13.369,14.136 l -21.65,21.657 c -19.085,19.168 -41.189,42.722 -60.846,60.791 -21.508,0.178 -43.812,0.168 -65.31,-0.08 32.003,-32.935 65.178,-64.931 97.602,-97.449 2.738,-2.746 5.458,-7.564 2.958,-10.86 -5.522,-7.281 -14.525,-15.45 -20.93,-21.881 L 772.95,315.208 687.009,228.963 C 671.901,213.794 656.82,198.595 641.641,183.5 c -4.029,-4.007 -7.446,-4.624 -12.421,-1.92 -5.307,4.414 -14.028,13.668 -19.147,18.8 l -34.068,34.037 -117.799,117.73 c -17.847,17.87 -35.227,36.539 -54.699,52.565 -25.698,21.149 -40.454,48.104 -48.382,80.1 -30.204,-0.92 -64.479,-0.066 -95.005,-0.204 l 232.088,-231.888 84.621,-84.335 29.44,-29.446 c 5.538,-5.537 11.096,-11.174 16.792,-16.544 2.547,-2.401 5.51,-3.402 8.792,-4.283 z"
       id="path18" />
    <path
       fill="#68c754"
       d="m 484.859,391.709 c 22.638,-2.23 51.389,5.91 70.64,17.831 27.552,16.755 47.271,43.823 54.771,75.186 l -153.464,-0.063 c 4.439,-8.158 9.087,-12.399 16.645,-17.571 4.104,-2.249 7.884,-4.719 8.42,-9.851 0.255,-2.25 -0.475,-4.5 -2.002,-6.171 -7.731,-8.484 -20.743,2.323 -26.66,7.977 l -1.153,-1.224 c -3.142,-3.307 -6.009,-6.199 -10.924,-6.191 -5.612,0.008 -9.322,4.924 -8.529,10.341 0.774,5.289 3.688,7.507 7.546,10.609 -2.459,4.203 -3.736,7.678 -5.448,12.228 -19.631,-0.432 -40.73,-0.138 -60.382,-0.041 14.845,-53.443 54.528,-89.057 110.54,-93.06 z"
       id="path19" />
    <path
       fill="#59a047"
       d="m 289.289,876.018 93.267,0.007 c -6.206,5.761 -13.191,13.143 -19.262,19.225 -7.717,7.612 -15.347,18.723 -27.057,18.727 -11.181,0.004 -19.153,-10.244 -26.415,-17.526 -6.782,-6.873 -13.627,-13.684 -20.533,-20.433 z"
       id="path20" />
    <path
       fill="#68c754"
       d="m 93.2197,659.351 c 0.3608,1.804 0.2945,11.7 0.0633,13.727 l -0.4311,0.014 c -2.0587,-4.963 -2.5044,-9.057 0.3678,-13.741 z"
       id="path21" />
  </g>
</svg>
