<?xml version="1.0" encoding="UTF-8" standalone="no"?>
<svg
   width="1000"
   height="1000"
   viewBox="0 0 1000 1000"
   version="1.1"
   id="svg3"
   sodipodi:docname="cusd.svg"
   inkscape:version="1.3.2 (091e20e, 2023-11-25, custom)"
   xmlns:inkscape="http://www.inkscape.org/namespaces/inkscape"
   xmlns:sodipodi="http://sodipodi.sourceforge.net/DTD/sodipodi-0.dtd"
   xmlns="http://www.w3.org/2000/svg"
   xmlns:svg="http://www.w3.org/2000/svg">
  <defs
     id="defs3" />
  <sodipodi:namedview
     id="namedview3"
     pagecolor="#ffffff"
     bordercolor="#000000"
     borderopacity="0.25"
     inkscape:showpageshadow="2"
     inkscape:pageopacity="0.0"
     inkscape:pagecheckerboard="0"
     inkscape:deskcolor="#d1d1d1"
     inkscape:zoom="0.31890516"
     inkscape:cx="946.99001"
     inkscape:cy="721.21756"
     inkscape:window-width="1440"
     inkscape:window-height="830"
     inkscape:window-x="-6"
     inkscape:window-y="-6"
     inkscape:window-maximized="1"
     inkscape:current-layer="svg3" />
  <g
     id="g4"
     transform="scale(4)">
    <circle
       style="fill:#44ce85;fill-opacity:1;stroke-width:5.4464;stroke-linecap:round;stroke-linejoin:round"
       id="path4"
       cx="125"
       cy="125"
       r="125" />
    <path
       fill="#fefefe"
       d="m 100.225,81.016 c 0.283,-0.0356 0.299,0.0065 0.596,0.0732 0.457,1.484 0.21,12.4746 0.212,14.8844 -7.7404,3.5445 -14.5913,10.4694 -18.566,17.9504 -5.263,9.904 -6.3659,21.495 -3.065,32.214 3.331,10.802 10.8438,19.823 20.865,25.053 9.928,5.181 21.507,6.209 32.193,2.858 11.405,-3.581 19.555,-11.079 25.043,-21.54 5.107,0.03 10.215,0.027 15.323,-0.008 -2.791,6.987 -5.065,11.205 -9.757,17.016 -5.425,7 -14.351,13.2 -22.479,16.465 -13.862,5.509 -29.342,5.307 -43.0554,-0.562 C 83.7604,179.45 72.9227,168.252 67.4069,154.29 61.9646,140.378 62.2668,124.874 68.2472,111.184 74.4567,97.0103 85.8777,86.595 100.225,81.016 Z"
       id="path2" />
    <path
       fill="#fefefe"
       d="m 141.438,51.5388 13.11,-0.0122 c -0.049,3.2628 -0.517,6.2238 -0.946,9.4523 6.859,0.5015 10.351,1.2229 16.958,2.696 -0.094,4.3043 -0.025,8.8342 -0.028,13.1556 -8.367,-3.8726 -18.898,-6.1942 -28.088,-5.0169 -2.5,0.3202 -7.775,1.9927 -8.985,4.2483 -4.86,9.0596 10.064,10.7083 15.591,11.8208 12.84,2.258 29.97,5.5163 28.376,22.3313 -0.153,3.469 -1.252,6.064 -3.193,8.886 -4.677,6.801 -11.865,8.572 -19.455,10.026 0.627,3.372 0.94,5.971 0.997,9.391 l -9.63,0.005 -3.485,-0.005 c 0.018,-2.861 0.654,-6.555 0.971,-9.513 -9.059,-0.524 -15.627,-2.264 -23.902,-5.714 l -0.004,-13.586 c 9.828,4.833 22.895,9.232 33.832,7.743 3.312,-0.451 7.29,-1.729 9.327,-4.537 0.962,-1.336 1.327,-3.012 1.008,-4.627 -1.405,-7.418 -19.408,-7.671 -25.538,-9.5355 -4.621,-0.9994 -8.123,-2.263 -12.168,-4.748 -7.57,-4.6505 -9.304,-15.9704 -4.467,-23.2136 4.461,-6.68 13.147,-8.5359 20.765,-9.9145 -0.543,-3.2188 -0.996,-6.0622 -1.046,-9.3326 z"
       id="path3" />
  </g>
</svg>
