<?xml version="1.0" encoding="UTF-8" standalone="no"?>
<svg
   width="700.00006"
   height="700"
   viewBox="0 0 700.00006 700"
   version="1.1"
   id="svg12"
   sodipodi:docname="logo.svg"
   inkscape:version="1.3.2 (091e20e, 2023-11-25, custom)"
   inkscape:export-filename="logo4.png"
   inkscape:export-xdpi="17.554285"
   inkscape:export-ydpi="17.554285"
   xmlns:inkscape="http://www.inkscape.org/namespaces/inkscape"
   xmlns:sodipodi="http://sodipodi.sourceforge.net/DTD/sodipodi-0.dtd"
   xmlns:xlink="http://www.w3.org/1999/xlink"
   xmlns="http://www.w3.org/2000/svg"
   xmlns:svg="http://www.w3.org/2000/svg">
  <defs
     id="defs12">
    <linearGradient
       id="linearGradient33"
       inkscape:collect="always">
      <stop
         style="stop-color:#a543d9;stop-opacity:1;"
         offset="0"
         id="stop33" />
      <stop
         style="stop-color:#250c26;stop-opacity:1;"
         offset="1"
         id="stop34" />
    </linearGradient>
    <linearGradient
       id="linearGradient84"
       inkscape:collect="always">
      <stop
         style="stop-color:#a543d9;stop-opacity:1;"
         offset="0.16933638"
         id="stop84" />
      <stop
         style="stop-color:#ffffff;stop-opacity:1;"
         offset="1"
         id="stop85" />
    </linearGradient>
    <clipPath
       clipPathUnits="userSpaceOnUse"
       id="clipPath33">
      <path
         id="path33"
         style="fill:#000080;stroke-width:37.2408;stroke-linecap:round;stroke-linejoin:round"
         d="M 114.2559,-317.49002 H 934.51631 V 402.50535 H 114.2559 Z" />
    </clipPath>
    <linearGradient
       inkscape:collect="always"
       xlink:href="#linearGradient84"
       id="linearGradient85"
       x1="525.85852"
       y1="264.12457"
       x2="525.85852"
       y2="158.17206"
       gradientUnits="userSpaceOnUse" />
    <linearGradient
       inkscape:collect="always"
       xlink:href="#linearGradient33"
       id="linearGradient34"
       x1="540.46259"
       y1="826.16248"
       x2="540.46259"
       y2="973.05121"
       gradientUnits="userSpaceOnUse" />
    <linearGradient
       inkscape:collect="always"
       xlink:href="#linearGradient33"
       id="linearGradient1"
       gradientUnits="userSpaceOnUse"
       x1="540.46259"
       y1="826.16248"
       x2="540.46259"
       y2="973.05121" />
    <linearGradient
       inkscape:collect="always"
       xlink:href="#linearGradient33"
       id="linearGradient2"
       gradientUnits="userSpaceOnUse"
       x1="540.46259"
       y1="826.16248"
       x2="540.46259"
       y2="973.05121" />
    <linearGradient
       inkscape:collect="always"
       xlink:href="#linearGradient33"
       id="linearGradient3"
       gradientUnits="userSpaceOnUse"
       x1="540.46259"
       y1="826.16248"
       x2="540.46259"
       y2="973.05121" />
    <linearGradient
       inkscape:collect="always"
       xlink:href="#linearGradient33"
       id="linearGradient4"
       gradientUnits="userSpaceOnUse"
       x1="540.46259"
       y1="826.16248"
       x2="540.46259"
       y2="973.05121" />
    <linearGradient
       inkscape:collect="always"
       xlink:href="#linearGradient33"
       id="linearGradient5"
       gradientUnits="userSpaceOnUse"
       x1="540.46259"
       y1="826.16248"
       x2="540.46259"
       y2="973.05121" />
    <linearGradient
       inkscape:collect="always"
       xlink:href="#linearGradient33"
       id="linearGradient6"
       gradientUnits="userSpaceOnUse"
       x1="540.46259"
       y1="826.16248"
       x2="540.46259"
       y2="973.05121" />
    <linearGradient
       inkscape:collect="always"
       xlink:href="#linearGradient33"
       id="linearGradient7"
       gradientUnits="userSpaceOnUse"
       x1="540.46259"
       y1="826.16248"
       x2="540.46259"
       y2="973.05121" />
    <linearGradient
       inkscape:collect="always"
       xlink:href="#linearGradient33"
       id="linearGradient8"
       gradientUnits="userSpaceOnUse"
       x1="540.46259"
       y1="826.16248"
       x2="540.46259"
       y2="973.05121" />
    <linearGradient
       inkscape:collect="always"
       xlink:href="#linearGradient33"
       id="linearGradient9"
       gradientUnits="userSpaceOnUse"
       x1="540.46259"
       y1="826.16248"
       x2="540.46259"
       y2="973.05121" />
    <linearGradient
       inkscape:collect="always"
       xlink:href="#linearGradient33"
       id="linearGradient10"
       gradientUnits="userSpaceOnUse"
       x1="540.46259"
       y1="826.16248"
       x2="540.46259"
       y2="973.05121" />
    <linearGradient
       inkscape:collect="always"
       xlink:href="#linearGradient33"
       id="linearGradient11"
       gradientUnits="userSpaceOnUse"
       x1="540.46259"
       y1="826.16248"
       x2="540.46259"
       y2="973.05121" />
    <linearGradient
       inkscape:collect="always"
       xlink:href="#linearGradient33"
       id="linearGradient12"
       gradientUnits="userSpaceOnUse"
       x1="540.46259"
       y1="826.16248"
       x2="540.46259"
       y2="973.05121" />
    <linearGradient
       inkscape:collect="always"
       xlink:href="#linearGradient33"
       id="linearGradient13"
       gradientUnits="userSpaceOnUse"
       x1="540.46259"
       y1="826.16248"
       x2="540.46259"
       y2="973.05121" />
    <linearGradient
       inkscape:collect="always"
       xlink:href="#linearGradient33"
       id="linearGradient14"
       gradientUnits="userSpaceOnUse"
       x1="540.46259"
       y1="826.16248"
       x2="540.46259"
       y2="973.05121" />
    <linearGradient
       inkscape:collect="always"
       xlink:href="#linearGradient33"
       id="linearGradient15"
       gradientUnits="userSpaceOnUse"
       x1="540.46259"
       y1="826.16248"
       x2="540.46259"
       y2="973.05121" />
    <linearGradient
       inkscape:collect="always"
       xlink:href="#linearGradient33"
       id="linearGradient16"
       gradientUnits="userSpaceOnUse"
       x1="540.46259"
       y1="826.16248"
       x2="540.46259"
       y2="973.05121" />
    <linearGradient
       inkscape:collect="always"
       xlink:href="#linearGradient84"
       id="linearGradient17"
       gradientUnits="userSpaceOnUse"
       x1="525.85852"
       y1="264.12457"
       x2="525.85852"
       y2="158.17206" />
    <linearGradient
       inkscape:collect="always"
       xlink:href="#linearGradient84"
       id="linearGradient18"
       gradientUnits="userSpaceOnUse"
       x1="525.85852"
       y1="264.12457"
       x2="525.85852"
       y2="158.17206" />
    <linearGradient
       inkscape:collect="always"
       xlink:href="#linearGradient84"
       id="linearGradient19"
       gradientUnits="userSpaceOnUse"
       x1="525.85852"
       y1="264.12457"
       x2="525.85852"
       y2="158.17206" />
    <linearGradient
       inkscape:collect="always"
       xlink:href="#linearGradient84"
       id="linearGradient20"
       gradientUnits="userSpaceOnUse"
       x1="525.85852"
       y1="264.12457"
       x2="525.85852"
       y2="158.17206" />
    <linearGradient
       inkscape:collect="always"
       xlink:href="#linearGradient84"
       id="linearGradient21"
       gradientUnits="userSpaceOnUse"
       x1="525.85852"
       y1="264.12457"
       x2="525.85852"
       y2="158.17206" />
    <linearGradient
       inkscape:collect="always"
       xlink:href="#linearGradient84"
       id="linearGradient22"
       gradientUnits="userSpaceOnUse"
       x1="525.85852"
       y1="264.12457"
       x2="525.85852"
       y2="158.17206" />
    <linearGradient
       inkscape:collect="always"
       xlink:href="#linearGradient84"
       id="linearGradient23"
       gradientUnits="userSpaceOnUse"
       x1="525.85852"
       y1="264.12457"
       x2="525.85852"
       y2="158.17206" />
    <linearGradient
       inkscape:collect="always"
       xlink:href="#linearGradient84"
       id="linearGradient24"
       gradientUnits="userSpaceOnUse"
       x1="525.85852"
       y1="264.12457"
       x2="525.85852"
       y2="158.17206" />
    <linearGradient
       inkscape:collect="always"
       xlink:href="#linearGradient84"
       id="linearGradient25"
       gradientUnits="userSpaceOnUse"
       x1="525.85852"
       y1="264.12457"
       x2="525.85852"
       y2="158.17206" />
    <linearGradient
       inkscape:collect="always"
       xlink:href="#linearGradient84"
       id="linearGradient26"
       gradientUnits="userSpaceOnUse"
       x1="525.85852"
       y1="264.12457"
       x2="525.85852"
       y2="158.17206" />
    <linearGradient
       inkscape:collect="always"
       xlink:href="#linearGradient84"
       id="linearGradient27"
       gradientUnits="userSpaceOnUse"
       x1="525.85852"
       y1="264.12457"
       x2="525.85852"
       y2="158.17206" />
    <linearGradient
       inkscape:collect="always"
       xlink:href="#linearGradient84"
       id="linearGradient28"
       gradientUnits="userSpaceOnUse"
       x1="525.85852"
       y1="264.12457"
       x2="525.85852"
       y2="158.17206" />
    <linearGradient
       inkscape:collect="always"
       xlink:href="#linearGradient84"
       id="linearGradient29"
       gradientUnits="userSpaceOnUse"
       x1="525.85852"
       y1="264.12457"
       x2="525.85852"
       y2="158.17206" />
    <linearGradient
       inkscape:collect="always"
       xlink:href="#linearGradient84"
       id="linearGradient30"
       gradientUnits="userSpaceOnUse"
       x1="525.85852"
       y1="264.12457"
       x2="525.85852"
       y2="158.17206" />
    <linearGradient
       inkscape:collect="always"
       xlink:href="#linearGradient84"
       id="linearGradient31"
       gradientUnits="userSpaceOnUse"
       x1="525.85852"
       y1="264.12457"
       x2="525.85852"
       y2="158.17206" />
    <linearGradient
       inkscape:collect="always"
       xlink:href="#linearGradient84"
       id="linearGradient32"
       gradientUnits="userSpaceOnUse"
       x1="525.85852"
       y1="264.12457"
       x2="525.85852"
       y2="158.17206" />
  </defs>
  <sodipodi:namedview
     id="namedview12"
     pagecolor="#ffffff"
     bordercolor="#000000"
     borderopacity="0.25"
     inkscape:showpageshadow="2"
     inkscape:pageopacity="0.0"
     inkscape:pagecheckerboard="0"
     inkscape:deskcolor="#d1d1d1"
     inkscape:zoom="0.40534344"
     inkscape:cx="193.66293"
     inkscape:cy="619.22798"
     inkscape:window-width="1440"
     inkscape:window-height="830"
     inkscape:window-x="-6"
     inkscape:window-y="-6"
     inkscape:window-maximized="1"
     inkscape:current-layer="svg12" />
  <g
     id="g27"
     transform="matrix(1.0135729,0,0,1.024515,-173.44796,-207.77175)"
     inkscape:export-filename="logo16.png"
     inkscape:export-xdpi="2.1942856"
     inkscape:export-ydpi="2.1942856"
     style="fill:url(#linearGradient34);fill-opacity:1">
    <path
       fill="#0878fd"
       d="m 293.74809,203.28257 c 7.287,-0.942 19.734,-0.216 27.552,-0.206 l 52.274,0.02 167.877,10e-4 138.205,-0.006 40.653,-0.017 c 13.023,0 25.021,-0.283 37.92,1.827 23.757,3.886 44.923,13.492 62.725,29.649 25.045,22.731 39.385,55.592 40.34,89.255 0.336,11.853 0.169,24.237 0.154,36.173 l -0.012,60.139 0.01,187.877 0.035,105.529 c 0.016,21.811 1.379,47.28 -2.169,68.541 -9.942,59.572 -59.965,101.045 -119.417,103.647 -9.449,0.59 -22.293,0.23 -31.895,0.229 l -58.018,-0.017 -178.478,-0.017 -122.519,0.033 -36.272,0.044 c -11.601,0.006 -22.193,0.24 -33.744,-1.532 -23.54,-3.613 -45.346,-13.087 -63.49,-28.651 -25.307,-21.777 -40.873,-52.754 -43.245,-86.055 -1.129,-14.59 -0.918,-28.463 -0.91,-43.066 l 0.005,-51.742 -0.004,-170.949 -0.015,-120.965 c 0,-21.891 -1.138,-55.14 2.234,-75.864 3.779,-22.834 13.738,-44.196 28.798,-61.77 24.345,-28.159 55.158,-39.589 91.406,-42.107 z m 139.123,198.005 c -18.041,1.605 -34.173,6.662 -45.959,21.321 -22.267,27.692 -23.825,75.705 -20.641,109.982 2.25,24.224 9.105,52.756 28.529,68.68 12.361,10.133 30.037,14.601 45.755,13.601 18.438,-1.823 33.923,-7.175 46.081,-22.14 21.727,-26.744 23.614,-77.235 20.543,-110.123 -2.131,-22.835 -9.837,-53.029 -28.234,-67.65 -12.12,-9.632 -30.784,-15.023 -46.074,-13.671 z m 280.117,101.505 c -7.211,3.506 -11.699,5.82 -17.292,11.595 -29.079,30.026 -18.52,83.237 22.671,95.865 8.811,2.701 22.425,5.629 31.642,4.497 19.357,-1.442 41.066,-7.046 53.687,-22.728 23.745,-29.504 15.429,-75.693 -21.215,-89.547 13.482,-7.628 22.208,-16.58 26.398,-31.917 3.926,-14.064 2.066,-29.115 -5.167,-41.8 -7.472,-12.89 -20.141,-21.25 -34.368,-24.891 -5.839,-1.494 -16.778,-3.183 -22.774,-2.578 -18.919,1.226 -34.953,5.106 -48.154,19.734 -21.64,23.979 -17.5,68.947 14.572,81.77 z m -187.886,68.236 c 26.172,0.66 54.511,0.085 80.849,0.148 l -0.029,23.187 c -0.024,3.488 -0.518,13.445 1.017,16.007 7.467,1.678 25.642,0.482 33.792,-0.028 1.765,-0.111 1.233,-13.077 1.221,-15.014 -0.098,-8.026 -0.119,-16.053 -0.063,-24.079 7.651,-0.038 15.444,0.004 23.08,-0.126 -0.007,-10.081 0.252,-21.97 -0.094,-31.906 -7.711,-0.18 -15.424,-0.242 -23.137,-0.187 l -0.202,-87.185 c -0.006,-15.353 0.37,-32.452 -0.144,-47.689 l -41.87,0.017 c -3.424,4.67 -10.593,18.374 -13.689,23.934 l -26.974,48.681 c -7.774,14.002 -15.467,28.05 -23.077,42.142 -2.623,4.809 -9.234,16.267 -10.87,20.792 -1.459,4.036 -0.637,26.419 0.055,30.475 z m -255.593,5.996 c 7.683,-7.454 15.325,-16.465 22.624,-24.411 24.191,-26.338 50.613,-55.654 51.659,-93.502 0.412,-14.3 -5.395,-29.991 -15.421,-40.166 -11.368,-11.537 -27.88,-16.04 -43.71,-16.008 -1.969,0.004 -8.713,0.057 -10.407,0.328 -30.068,3.783 -43.357,16.839 -57.343,42.564 7.141,3.896 22.508,12.855 29.38,15.877 6.511,-10.236 13.982,-22.859 26.67,-25.919 14.919,-3.597 28.11,3.632 31.255,19.157 3.218,15.89 -5.878,31.853 -14.263,44.688 -14.788,21.714 -33.556,41.517 -50.6,61.47 -4.479,5.245 -16.675,18.229 -19.898,23.417 -0.032,5.07 -0.594,21.104 0.846,24.916 2.607,1.688 28.548,0.922 33.623,0.946 l 59.164,10e-4 c 10.414,-0.004 24.117,0.356 34.287,-0.332 0.28,-10.963 0.311,-21.932 0.091,-32.896 -24.772,-0.603 -53.04,-0.378 -77.957,-0.13 z"
       id="path1"
       style="fill:url(#linearGradient1);fill-opacity:1" />
    <path
       fill="#0878fd"
       d="m 432.62209,435.15857 c 22.13,-0.998 31.39,13.183 35.045,33.3 5.021,27.628 9.85,104.948 -26.72,112.007 -20.348,2.575 -31.179,-13.932 -34.393,-31.674 -5.151,-28.431 -11.342,-105.884 26.068,-113.633 z"
       id="path2"
       style="fill:url(#linearGradient2);fill-opacity:1" />
    <path
       fill="#0878fd"
       d="m 745.88509,518.14657 c 5.428,1.369 15.939,8.024 20.474,11.507 6.5,5.077 10.577,12.261 11.477,20.424 2.076,18.826 -9.223,32.64 -28.206,34.03 -23.967,0.125 -38.801,-18.629 -30.369,-42.053 3.929,-10.915 16.244,-19.524 26.624,-23.908 z"
       id="path3"
       style="fill:url(#linearGradient3);fill-opacity:1" />
    <path
       fill="#0878fd"
       d="m 743.92709,433.15457 c 3.889,-0.259 6.903,-0.428 10.786,0.45 6.453,1.404 12.043,5.401 15.457,11.054 3.661,6.169 4.658,14.933 2.847,21.858 -2.737,10.467 -12.453,18.174 -21.484,23.226 -3.762,1.819 -5.999,1.055 -9.608,-1.211 -8.125,-5.258 -16.601,-12.656 -18.655,-22.64 -3.4,-16.523 3.911,-28.94 20.657,-32.737 z"
       id="path4"
       style="fill:url(#linearGradient4);fill-opacity:1" />
    <path
       fill="#0878fd"
       d="m 606.23509,452.99957 c 0.195,0.23 0.187,78.741 0.138,86.067 l -45.765,-0.015 -0.38,-0.464 c 0.529,-2.359 6.709,-12.88 8.257,-15.683 12.795,-23.167 24.825,-46.814 37.75,-69.905 z"
       id="path5"
       style="fill:url(#linearGradient5);fill-opacity:1" />
    <path
       fill="#fefefe"
       d="m 358.07409,642.54957 21.484,-0.022 c 0.397,6.424 0.169,14.799 0.218,21.345 0.046,6.054 0.325,15.468 -0.482,21.175 6.066,-6.445 11.259,-10.397 20.534,-11.398 9.634,-1.086 19.303,1.724 26.854,7.806 19.276,15.746 18.074,48.625 3.124,67.068 -1.781,1.913 -3.77,3.62 -5.93,5.091 -7.804,5.17 -17.346,7.019 -26.516,5.137 -8.783,-1.761 -13.731,-6.343 -18.467,-13.43 0.585,4.517 0.396,7.743 0.116,12.259 l -20.989,-0.101 c -0.359,-15.555 -0.059,-32.287 -0.064,-47.917 -0.09,-22.338 -0.051,-44.676 0.118,-67.013 z"
       id="path6"
       style="fill:url(#linearGradient6);fill-opacity:1" />
    <path
       fill="#0878fd"
       d="m 397.07809,691.17657 c 25.571,-1.99 29.037,43.77 5.145,50.015 -11.5,0.341 -19.397,-4.473 -21.629,-16.628 -2.626,-14.293 -0.405,-30.052 16.484,-33.387 z"
       id="path7"
       style="fill:url(#linearGradient7);fill-opacity:1" />
    <path
       fill="#fefefe"
       d="m 481.30709,673.75857 c 20.224,-1.422 40.431,4.854 40.559,28.609 0.1,18.703 -0.042,36.508 1.128,55.206 l -21.105,-0.027 -0.397,-11.03 c -7.78,10.578 -17.062,14.283 -30.048,12.693 -8.532,-1.045 -14.205,-4.294 -19.476,-11.058 -1.926,-3.767 -3.119,-7.593 -3.199,-11.823 -0.562,-29.591 32.507,-27.644 52.494,-28.122 -0.293,-4.049 -0.323,-7.464 -2.102,-11.345 -3.507,-7.653 -13.467,-9.147 -20.382,-5.353 -4.421,2.426 -5.832,5.532 -7.161,10.23 -6.841,-0.409 -13.688,-0.715 -20.538,-0.917 3.868,-17.946 12.387,-24.793 30.227,-27.063 z"
       id="path8"
       style="fill:url(#linearGradient8);fill-opacity:1" />
    <path
       fill="#0878fd"
       d="m 486.49809,722.25557 c 4.512,-0.349 9.944,-0.206 14.535,-0.2 -0.017,12.405 -1.626,18.075 -14.707,20.997 -8.987,0.463 -20.384,-3.171 -13.443,-15.259 2.293,-3.995 9.177,-4.996 13.615,-5.538 z"
       id="path9"
       style="fill:url(#linearGradient9);fill-opacity:1" />
    <path
       fill="#fefefe"
       d="m 647.63309,673.76457 c 31.797,-3.277 45.68,19.075 43.261,48.281 l -57.305,0.031 c 0.312,2.051 0.589,4.65 1.357,6.539 6.846,16.851 25.189,17.903 35.915,4.595 3.562,0.683 7.404,1.629 10.967,2.436 2.388,0.505 5.059,1.201 7.456,1.774 -14.818,35.203 -74.245,27.188 -77.073,-13.25 -1.859,-26.592 6.965,-47.294 35.422,-50.406 z"
       id="path10"
       style="fill:url(#linearGradient10);fill-opacity:1" />
    <path
       fill="#0878fd"
       d="m 647.62009,690.18157 c 14.611,-1.143 18.755,4.333 21.295,17.753 l -14.106,-0.083 c -7.052,0.08 -14.105,0.08 -21.157,0 2.111,-9.019 4.663,-14.658 13.968,-17.67 z"
       id="path11"
       style="fill:url(#linearGradient11);fill-opacity:1" />
    <path
       fill="#fefefe"
       d="m 564.26709,673.77157 c 18.699,-1.752 35.272,4.613 38.878,24.933 -7.039,0.435 -13.411,0.555 -20.582,1.172 -2.606,-7.292 -5.125,-9.377 -13.181,-10.325 -10.359,-1.218 -18.746,8.852 -7.153,14.701 10.481,5.289 25.665,4.61 34.719,13.234 8.462,8.061 8.219,24.393 -0.446,32.287 -7.788,7.216 -16.121,9.199 -26.193,9.475 -18.804,0.543 -33.199,-6.032 -36.953,-26.024 6.344,-0.621 12.393,-1.102 18.726,-1.978 3.791,8.599 7.758,12.008 17.368,12.239 12.677,0.519 18.983,-12.34 4.198,-16.943 -13.438,-4.064 -35.592,-6.775 -37.657,-24.507 -2.15,-18.462 12.453,-26.65 28.276,-28.264 z"
       id="path12"
       style="fill:url(#linearGradient12);fill-opacity:1" />
    <path
       style="fill:url(#linearGradient13);fill-opacity:1;stroke:none;stroke-width:9.68218;stroke-linecap:round;stroke-linejoin:round"
       d="m 612.97294,610.74797 c -3.06688,-0.15002 -5.68438,-0.38099 -5.81667,-0.51328 -0.79131,-0.79131 -1.01679,-5.47966 -1.02608,-21.33504 l -0.0104,-17.75455 -40.10104,-0.1262 c -27.20649,-0.0856 -40.24791,-0.27312 -40.55777,-0.58311 -0.70675,-0.70705 -1.38274,-18.73494 -0.93827,-25.02239 l 0.38301,-5.41797 2.77399,-5.48493 c 3.10334,-6.13615 17.76661,-32.96619 36.48554,-66.7592 6.84268,-12.35298 16.65884,-30.1138 21.81371,-39.46849 5.15487,-9.35468 10.28186,-18.4804 11.39334,-20.27938 l 2.02085,-3.27087 20.75599,-0.11323 20.75599,-0.11322 0.26407,0.98545 c 0.14524,0.54201 0.26675,30.86485 0.27002,67.3841 l 0.006,66.39864 h 11.4913 11.49129 l 0.28158,4.25213 c 0.36153,5.45947 0.36269,20.82001 0.002,24.64054 l -0.27803,2.94378 h -11.27594 -11.27595 l -0.0645,3.3799 c -0.0355,1.85894 -0.0846,10.24872 -0.10903,18.64395 -0.0326,11.19075 -0.18729,15.51329 -0.57966,16.19803 -0.57084,0.99621 0.10647,0.94077 -19.30809,1.58034 -1.79898,0.0593 -5.78013,-0.015 -8.84701,-0.165 z M 606.5559,496.09883 c 0,-23.74651 -0.14719,-43.17091 -0.32709,-43.16534 -0.40171,0.0125 -4.76187,7.9802 -20.39935,37.27777 -6.65737,12.47292 -14.56026,27.0937 -17.56197,32.49063 -6.13728,11.03453 -8.45361,15.65788 -8.11733,16.20199 0.12592,0.20373 10.61872,0.37042 23.31734,0.37042 h 23.0884 z"
       id="path14" />
    <path
       style="fill:url(#linearGradient14);fill-opacity:1;stroke:none;stroke-width:27.3854;stroke-linecap:round;stroke-linejoin:round"
       d="m 419.74486,612.37831 c -34.45787,-8.35373 -51.42007,-38.7994 -53.5677,-96.1494 -1.64364,-43.89161 6.35111,-76.19531 23.56506,-95.21735 7.81082,-8.63124 15.65032,-13.15001 28.52709,-16.44334 32.39421,-8.28504 62.92236,4.66616 76.23278,32.34084 9.64037,20.04403 13.8779,46.77498 12.67194,79.93661 -1.42291,39.12797 -10.03517,65.07508 -27.03111,81.43977 -13.51398,13.01205 -39.67613,19.11655 -60.39806,14.09287 z m 28.22211,-33.95265 c 9.73678,-4.7135 16.24114,-15.40418 20.46397,-33.63495 2.20275,-9.5097 2.61503,-15.18733 2.61144,-35.96293 -0.009,-51.2973 -8.26145,-70.60492 -31.65196,-74.05249 -15.45477,-2.2779 -28.30209,10.64337 -33.76865,33.96303 -5.49512,23.44146 -3.58892,71.73081 3.59746,91.13362 6.44919,17.41247 23.87185,25.75502 38.74774,18.55372 z"
       id="path15" />
    <path
       style="fill:url(#linearGradient15);fill-opacity:1;stroke:none;stroke-width:27.3854;stroke-linecap:round;stroke-linejoin:round"
       d="m 220.18366,596.63007 v -12.72973 l 10.82562,-12.24908 c 45.42954,-51.40308 58.87559,-68.56203 67.78139,-86.49812 5.65335,-11.38573 5.88924,-12.28552 5.88924,-22.46409 0,-7.97521 -0.58673,-11.78531 -2.36724,-15.37234 -2.94741,-5.93787 -10.33918,-11.41675 -16.89772,-12.52481 -12.83948,-2.16921 -23.78679,3.41515 -32.9638,16.81526 -3.16072,4.61523 -6.2435,8.415 -6.85061,8.44392 -2.4903,0.11863 -26.6504,-13.7791 -26.6504,-15.33024 0,-3.0065 12.28081,-20.13176 18.12735,-25.27809 21.45488,-18.88534 61.76979,-21.31064 84.43618,-5.0796 13.58477,9.72784 21.12759,25.39837 21.12604,43.89023 -10e-4,13.56865 -2.46075,23.44671 -9.52141,38.23918 -8.33257,17.45718 -20.65827,33.42518 -50.14306,64.96058 -7.39789,7.9124 -13.45071,14.71219 -13.45071,15.11064 0,0.39845 17.48518,0.72446 38.85594,0.72446 h 38.85594 v 16.03579 16.03578 h -63.52637 -63.52638 z"
       id="path16" />
    <path
       style="fill:url(#linearGradient16);fill-opacity:1;stroke:none;stroke-width:27.3854;stroke-linecap:round;stroke-linejoin:round"
       d="m 729.76756,612.47369 c -13.41548,-3.05542 -19.60686,-5.58256 -26.96658,-11.00694 -8.52302,-6.28177 -12.74497,-11.60996 -17.85907,-22.53855 -3.30153,-7.05519 -3.92,-9.97001 -4.3826,-20.6546 -0.45356,-10.47604 -0.11288,-13.70608 2.15772,-20.45806 4.80584,-14.29092 14.42924,-26.19856 25.90387,-32.05247 l 5.14191,-2.62321 -7.34629,-4.74814 c -20.09202,-12.9861 -26.50671,-40.95056 -14.98299,-65.31746 6.9771,-14.75308 21.27488,-25.17961 39.76607,-28.99907 32.72329,-6.75918 61.36403,4.37256 73.27922,28.48131 4.00581,8.10522 4.64491,10.64238 5.10505,20.26671 0.91333,19.10289 -6.2936,34.71606 -20.44215,44.28611 -3.51055,2.37453 -6.4029,4.72429 -6.42745,5.22169 -0.0245,0.4974 2.61088,2.25001 5.85651,3.89469 38.05918,19.28605 35.91414,80.58066 -3.46805,99.09928 -16.31153,7.67015 -39.75038,10.6982 -55.33517,7.14871 z m 32.76109,-31.27845 c 9.86058,-5.0305 16.44042,-16.1557 16.44042,-27.79751 0,-7.09904 -3.95868,-15.95712 -9.65258,-21.59895 -5.97292,-5.9183 -19.1956,-13.72826 -23.20841,-13.70801 -6.90808,0.0349 -23.28444,13.96358 -27.26677,23.19145 -3.03145,7.02449 -2.7259,20.64765 0.60432,26.94367 3.43229,6.48902 10.44778,12.33106 17.5837,14.64256 7.37698,2.38959 19.03505,1.62461 25.49932,-1.67321 z m -5.59667,-94.06081 c 6.98439,-4.48187 13.03669,-11.05186 15.40703,-16.72488 2.03877,-4.87947 2.0669,-16.78378 0.0528,-22.33638 -1.88505,-5.19676 -7.70171,-11.31368 -12.77342,-13.43277 -5.95355,-2.48755 -18.08608,-2.1375 -23.56332,0.67986 -9.56887,4.92199 -13.83269,11.92652 -13.8211,22.70504 0.0134,12.44825 4.29654,20.17026 15.91944,28.70087 7.09136,5.20469 11.16596,5.29328 18.7786,0.40826 z"
       id="path17" />
  </g>
  <g
     id="g32"
     transform="matrix(1.0135729,0,0,1.024515,-173.44796,-207.77175)"
     inkscape:export-filename="logo16.png"
     inkscape:export-xdpi="2.1942856"
     inkscape:export-ydpi="2.1942856"
     clip-path="url(#clipPath33)"
     style="fill:url(#linearGradient85);fill-opacity:1">
    <path
       fill="#0878fd"
       d="m 293.74809,203.28257 c 7.287,-0.942 19.734,-0.216 27.552,-0.206 l 52.274,0.02 167.877,10e-4 138.205,-0.006 40.653,-0.017 c 13.023,0 25.021,-0.283 37.92,1.827 23.757,3.886 44.923,13.492 62.725,29.649 25.045,22.731 39.385,55.592 40.34,89.255 0.336,11.853 0.169,24.237 0.154,36.173 l -0.012,60.139 0.01,187.877 0.035,105.529 c 0.016,21.811 1.379,47.28 -2.169,68.541 -9.942,59.572 -59.965,101.045 -119.417,103.647 -9.449,0.59 -22.293,0.23 -31.895,0.229 l -58.018,-0.017 -178.478,-0.017 -122.519,0.033 -36.272,0.044 c -11.601,0.006 -22.193,0.24 -33.744,-1.532 -23.54,-3.613 -45.346,-13.087 -63.49,-28.651 -25.307,-21.777 -40.873,-52.754 -43.245,-86.055 -1.129,-14.59 -0.918,-28.463 -0.91,-43.066 l 0.005,-51.742 -0.004,-170.949 -0.015,-120.965 c 0,-21.891 -1.138,-55.14 2.234,-75.864 3.779,-22.834 13.738,-44.196 28.798,-61.77 24.345,-28.159 55.158,-39.589 91.406,-42.107 z m 139.123,198.005 c -18.041,1.605 -34.173,6.662 -45.959,21.321 -22.267,27.692 -23.825,75.705 -20.641,109.982 2.25,24.224 9.105,52.756 28.529,68.68 12.361,10.133 30.037,14.601 45.755,13.601 18.438,-1.823 33.923,-7.175 46.081,-22.14 21.727,-26.744 23.614,-77.235 20.543,-110.123 -2.131,-22.835 -9.837,-53.029 -28.234,-67.65 -12.12,-9.632 -30.784,-15.023 -46.074,-13.671 z m 280.117,101.505 c -7.211,3.506 -11.699,5.82 -17.292,11.595 -29.079,30.026 -18.52,83.237 22.671,95.865 8.811,2.701 22.425,5.629 31.642,4.497 19.357,-1.442 41.066,-7.046 53.687,-22.728 23.745,-29.504 15.429,-75.693 -21.215,-89.547 13.482,-7.628 22.208,-16.58 26.398,-31.917 3.926,-14.064 2.066,-29.115 -5.167,-41.8 -7.472,-12.89 -20.141,-21.25 -34.368,-24.891 -5.839,-1.494 -16.778,-3.183 -22.774,-2.578 -18.919,1.226 -34.953,5.106 -48.154,19.734 -21.64,23.979 -17.5,68.947 14.572,81.77 z m -187.886,68.236 c 26.172,0.66 54.511,0.085 80.849,0.148 l -0.029,23.187 c -0.024,3.488 -0.518,13.445 1.017,16.007 7.467,1.678 25.642,0.482 33.792,-0.028 1.765,-0.111 1.233,-13.077 1.221,-15.014 -0.098,-8.026 -0.119,-16.053 -0.063,-24.079 7.651,-0.038 15.444,0.004 23.08,-0.126 -0.007,-10.081 0.252,-21.97 -0.094,-31.906 -7.711,-0.18 -15.424,-0.242 -23.137,-0.187 l -0.202,-87.185 c -0.006,-15.353 0.37,-32.452 -0.144,-47.689 l -41.87,0.017 c -3.424,4.67 -10.593,18.374 -13.689,23.934 l -26.974,48.681 c -7.774,14.002 -15.467,28.05 -23.077,42.142 -2.623,4.809 -9.234,16.267 -10.87,20.792 -1.459,4.036 -0.637,26.419 0.055,30.475 z m -255.593,5.996 c 7.683,-7.454 15.325,-16.465 22.624,-24.411 24.191,-26.338 50.613,-55.654 51.659,-93.502 0.412,-14.3 -5.395,-29.991 -15.421,-40.166 -11.368,-11.537 -27.88,-16.04 -43.71,-16.008 -1.969,0.004 -8.713,0.057 -10.407,0.328 -30.068,3.783 -43.357,16.839 -57.343,42.564 7.141,3.896 22.508,12.855 29.38,15.877 6.511,-10.236 13.982,-22.859 26.67,-25.919 14.919,-3.597 28.11,3.632 31.255,19.157 3.218,15.89 -5.878,31.853 -14.263,44.688 -14.788,21.714 -33.556,41.517 -50.6,61.47 -4.479,5.245 -16.675,18.229 -19.898,23.417 -0.032,5.07 -0.594,21.104 0.846,24.916 2.607,1.688 28.548,0.922 33.623,0.946 l 59.164,10e-4 c 10.414,-0.004 24.117,0.356 34.287,-0.332 0.28,-10.963 0.311,-21.932 0.091,-32.896 -24.772,-0.603 -53.04,-0.378 -77.957,-0.13 z"
       id="path13"
       style="fill:url(#linearGradient17);fill-opacity:1" />
    <path
       fill="#0878fd"
       d="m 432.62209,435.15857 c 22.13,-0.998 31.39,13.183 35.045,33.3 5.021,27.628 9.85,104.948 -26.72,112.007 -20.348,2.575 -31.179,-13.932 -34.393,-31.674 -5.151,-28.431 -11.342,-105.884 26.068,-113.633 z"
       id="path18"
       style="fill:url(#linearGradient18);fill-opacity:1" />
    <path
       fill="#0878fd"
       d="m 745.88509,518.14657 c 5.428,1.369 15.939,8.024 20.474,11.507 6.5,5.077 10.577,12.261 11.477,20.424 2.076,18.826 -9.223,32.64 -28.206,34.03 -23.967,0.125 -38.801,-18.629 -30.369,-42.053 3.929,-10.915 16.244,-19.524 26.624,-23.908 z"
       id="path19"
       style="fill:url(#linearGradient19);fill-opacity:1" />
    <path
       fill="#0878fd"
       d="m 743.92709,433.15457 c 3.889,-0.259 6.903,-0.428 10.786,0.45 6.453,1.404 12.043,5.401 15.457,11.054 3.661,6.169 4.658,14.933 2.847,21.858 -2.737,10.467 -12.453,18.174 -21.484,23.226 -3.762,1.819 -5.999,1.055 -9.608,-1.211 -8.125,-5.258 -16.601,-12.656 -18.655,-22.64 -3.4,-16.523 3.911,-28.94 20.657,-32.737 z"
       id="path20"
       style="fill:url(#linearGradient20);fill-opacity:1" />
    <path
       fill="#0878fd"
       d="m 606.23509,452.99957 c 0.195,0.23 0.187,78.741 0.138,86.067 l -45.765,-0.015 -0.38,-0.464 c 0.529,-2.359 6.709,-12.88 8.257,-15.683 12.795,-23.167 24.825,-46.814 37.75,-69.905 z"
       id="path21"
       style="fill:url(#linearGradient21);fill-opacity:1" />
    <path
       fill="#fefefe"
       d="m 358.07409,642.54957 21.484,-0.022 c 0.397,6.424 0.169,14.799 0.218,21.345 0.046,6.054 0.325,15.468 -0.482,21.175 6.066,-6.445 11.259,-10.397 20.534,-11.398 9.634,-1.086 19.303,1.724 26.854,7.806 19.276,15.746 18.074,48.625 3.124,67.068 -1.781,1.913 -3.77,3.62 -5.93,5.091 -7.804,5.17 -17.346,7.019 -26.516,5.137 -8.783,-1.761 -13.731,-6.343 -18.467,-13.43 0.585,4.517 0.396,7.743 0.116,12.259 l -20.989,-0.101 c -0.359,-15.555 -0.059,-32.287 -0.064,-47.917 -0.09,-22.338 -0.051,-44.676 0.118,-67.013 z"
       id="path22"
       style="fill:url(#linearGradient22);fill-opacity:1" />
    <path
       fill="#0878fd"
       d="m 397.07809,691.17657 c 25.571,-1.99 29.037,43.77 5.145,50.015 -11.5,0.341 -19.397,-4.473 -21.629,-16.628 -2.626,-14.293 -0.405,-30.052 16.484,-33.387 z"
       id="path23"
       style="fill:url(#linearGradient23);fill-opacity:1" />
    <path
       fill="#fefefe"
       d="m 481.30709,673.75857 c 20.224,-1.422 40.431,4.854 40.559,28.609 0.1,18.703 -0.042,36.508 1.128,55.206 l -21.105,-0.027 -0.397,-11.03 c -7.78,10.578 -17.062,14.283 -30.048,12.693 -8.532,-1.045 -14.205,-4.294 -19.476,-11.058 -1.926,-3.767 -3.119,-7.593 -3.199,-11.823 -0.562,-29.591 32.507,-27.644 52.494,-28.122 -0.293,-4.049 -0.323,-7.464 -2.102,-11.345 -3.507,-7.653 -13.467,-9.147 -20.382,-5.353 -4.421,2.426 -5.832,5.532 -7.161,10.23 -6.841,-0.409 -13.688,-0.715 -20.538,-0.917 3.868,-17.946 12.387,-24.793 30.227,-27.063 z"
       id="path24"
       style="fill:url(#linearGradient24);fill-opacity:1" />
    <path
       fill="#0878fd"
       d="m 486.49809,722.25557 c 4.512,-0.349 9.944,-0.206 14.535,-0.2 -0.017,12.405 -1.626,18.075 -14.707,20.997 -8.987,0.463 -20.384,-3.171 -13.443,-15.259 2.293,-3.995 9.177,-4.996 13.615,-5.538 z"
       id="path25"
       style="fill:url(#linearGradient25);fill-opacity:1" />
    <path
       fill="#fefefe"
       d="m 647.63309,673.76457 c 31.797,-3.277 45.68,19.075 43.261,48.281 l -57.305,0.031 c 0.312,2.051 0.589,4.65 1.357,6.539 6.846,16.851 25.189,17.903 35.915,4.595 3.562,0.683 7.404,1.629 10.967,2.436 2.388,0.505 5.059,1.201 7.456,1.774 -14.818,35.203 -74.245,27.188 -77.073,-13.25 -1.859,-26.592 6.965,-47.294 35.422,-50.406 z"
       id="path26"
       style="fill:url(#linearGradient26);fill-opacity:1" />
    <path
       fill="#0878fd"
       d="m 647.62009,690.18157 c 14.611,-1.143 18.755,4.333 21.295,17.753 l -14.106,-0.083 c -7.052,0.08 -14.105,0.08 -21.157,0 2.111,-9.019 4.663,-14.658 13.968,-17.67 z"
       id="path27"
       style="fill:url(#linearGradient27);fill-opacity:1" />
    <path
       fill="#fefefe"
       d="m 564.26709,673.77157 c 18.699,-1.752 35.272,4.613 38.878,24.933 -7.039,0.435 -13.411,0.555 -20.582,1.172 -2.606,-7.292 -5.125,-9.377 -13.181,-10.325 -10.359,-1.218 -18.746,8.852 -7.153,14.701 10.481,5.289 25.665,4.61 34.719,13.234 8.462,8.061 8.219,24.393 -0.446,32.287 -7.788,7.216 -16.121,9.199 -26.193,9.475 -18.804,0.543 -33.199,-6.032 -36.953,-26.024 6.344,-0.621 12.393,-1.102 18.726,-1.978 3.791,8.599 7.758,12.008 17.368,12.239 12.677,0.519 18.983,-12.34 4.198,-16.943 -13.438,-4.064 -35.592,-6.775 -37.657,-24.507 -2.15,-18.462 12.453,-26.65 28.276,-28.264 z"
       id="path28"
       style="fill:url(#linearGradient28);fill-opacity:1" />
    <path
       style="fill:url(#linearGradient29);fill-opacity:1;stroke:none;stroke-width:9.68218;stroke-linecap:round;stroke-linejoin:round"
       d="m 612.97294,610.74797 c -3.06688,-0.15002 -5.68438,-0.38099 -5.81667,-0.51328 -0.79131,-0.79131 -1.01679,-5.47966 -1.02608,-21.33504 l -0.0104,-17.75455 -40.10104,-0.1262 c -27.20649,-0.0856 -40.24791,-0.27312 -40.55777,-0.58311 -0.70675,-0.70705 -1.38274,-18.73494 -0.93827,-25.02239 l 0.38301,-5.41797 2.77399,-5.48493 c 3.10334,-6.13615 17.76661,-32.96619 36.48554,-66.7592 6.84268,-12.35298 16.65884,-30.1138 21.81371,-39.46849 5.15487,-9.35468 10.28186,-18.4804 11.39334,-20.27938 l 2.02085,-3.27087 20.75599,-0.11323 20.75599,-0.11322 0.26407,0.98545 c 0.14524,0.54201 0.26675,30.86485 0.27002,67.3841 l 0.006,66.39864 h 11.4913 11.49129 l 0.28158,4.25213 c 0.36153,5.45947 0.36269,20.82001 0.002,24.64054 l -0.27803,2.94378 h -11.27594 -11.27595 l -0.0645,3.3799 c -0.0355,1.85894 -0.0846,10.24872 -0.10903,18.64395 -0.0326,11.19075 -0.18729,15.51329 -0.57966,16.19803 -0.57084,0.99621 0.10647,0.94077 -19.30809,1.58034 -1.79898,0.0593 -5.78013,-0.015 -8.84701,-0.165 z M 606.5559,496.09883 c 0,-23.74651 -0.14719,-43.17091 -0.32709,-43.16534 -0.40171,0.0125 -4.76187,7.9802 -20.39935,37.27777 -6.65737,12.47292 -14.56026,27.0937 -17.56197,32.49063 -6.13728,11.03453 -8.45361,15.65788 -8.11733,16.20199 0.12592,0.20373 10.61872,0.37042 23.31734,0.37042 h 23.0884 z"
       id="path29" />
    <path
       style="fill:url(#linearGradient30);fill-opacity:1;stroke:none;stroke-width:27.3854;stroke-linecap:round;stroke-linejoin:round"
       d="m 419.74486,612.37831 c -34.45787,-8.35373 -51.42007,-38.7994 -53.5677,-96.1494 -1.64364,-43.89161 6.35111,-76.19531 23.56506,-95.21735 7.81082,-8.63124 15.65032,-13.15001 28.52709,-16.44334 32.39421,-8.28504 62.92236,4.66616 76.23278,32.34084 9.64037,20.04403 13.8779,46.77498 12.67194,79.93661 -1.42291,39.12797 -10.03517,65.07508 -27.03111,81.43977 -13.51398,13.01205 -39.67613,19.11655 -60.39806,14.09287 z m 28.22211,-33.95265 c 9.73678,-4.7135 16.24114,-15.40418 20.46397,-33.63495 2.20275,-9.5097 2.61503,-15.18733 2.61144,-35.96293 -0.009,-51.2973 -8.26145,-70.60492 -31.65196,-74.05249 -15.45477,-2.2779 -28.30209,10.64337 -33.76865,33.96303 -5.49512,23.44146 -3.58892,71.73081 3.59746,91.13362 6.44919,17.41247 23.87185,25.75502 38.74774,18.55372 z"
       id="path30" />
    <path
       style="fill:url(#linearGradient31);fill-opacity:1;stroke:none;stroke-width:27.3854;stroke-linecap:round;stroke-linejoin:round"
       d="m 220.18366,596.63007 v -12.72973 l 10.82562,-12.24908 c 45.42954,-51.40308 58.87559,-68.56203 67.78139,-86.49812 5.65335,-11.38573 5.88924,-12.28552 5.88924,-22.46409 0,-7.97521 -0.58673,-11.78531 -2.36724,-15.37234 -2.94741,-5.93787 -10.33918,-11.41675 -16.89772,-12.52481 -12.83948,-2.16921 -23.78679,3.41515 -32.9638,16.81526 -3.16072,4.61523 -6.2435,8.415 -6.85061,8.44392 -2.4903,0.11863 -26.6504,-13.7791 -26.6504,-15.33024 0,-3.0065 12.28081,-20.13176 18.12735,-25.27809 21.45488,-18.88534 61.76979,-21.31064 84.43618,-5.0796 13.58477,9.72784 21.12759,25.39837 21.12604,43.89023 -10e-4,13.56865 -2.46075,23.44671 -9.52141,38.23918 -8.33257,17.45718 -20.65827,33.42518 -50.14306,64.96058 -7.39789,7.9124 -13.45071,14.71219 -13.45071,15.11064 0,0.39845 17.48518,0.72446 38.85594,0.72446 h 38.85594 v 16.03579 16.03578 h -63.52637 -63.52638 z"
       id="path31" />
    <path
       style="fill:url(#linearGradient32);fill-opacity:1;stroke:none;stroke-width:27.3854;stroke-linecap:round;stroke-linejoin:round"
       d="m 729.76756,612.47369 c -13.41548,-3.05542 -19.60686,-5.58256 -26.96658,-11.00694 -8.52302,-6.28177 -12.74497,-11.60996 -17.85907,-22.53855 -3.30153,-7.05519 -3.92,-9.97001 -4.3826,-20.6546 -0.45356,-10.47604 -0.11288,-13.70608 2.15772,-20.45806 4.80584,-14.29092 14.42924,-26.19856 25.90387,-32.05247 l 5.14191,-2.62321 -7.34629,-4.74814 c -20.09202,-12.9861 -26.50671,-40.95056 -14.98299,-65.31746 6.9771,-14.75308 21.27488,-25.17961 39.76607,-28.99907 32.72329,-6.75918 61.36403,4.37256 73.27922,28.48131 4.00581,8.10522 4.64491,10.64238 5.10505,20.26671 0.91333,19.10289 -6.2936,34.71606 -20.44215,44.28611 -3.51055,2.37453 -6.4029,4.72429 -6.42745,5.22169 -0.0245,0.4974 2.61088,2.25001 5.85651,3.89469 38.05918,19.28605 35.91414,80.58066 -3.46805,99.09928 -16.31153,7.67015 -39.75038,10.6982 -55.33517,7.14871 z m 32.76109,-31.27845 c 9.86058,-5.0305 16.44042,-16.1557 16.44042,-27.79751 0,-7.09904 -3.95868,-15.95712 -9.65258,-21.59895 -5.97292,-5.9183 -19.1956,-13.72826 -23.20841,-13.70801 -6.90808,0.0349 -23.28444,13.96358 -27.26677,23.19145 -3.03145,7.02449 -2.7259,20.64765 0.60432,26.94367 3.43229,6.48902 10.44778,12.33106 17.5837,14.64256 7.37698,2.38959 19.03505,1.62461 25.49932,-1.67321 z m -5.59667,-94.06081 c 6.98439,-4.48187 13.03669,-11.05186 15.40703,-16.72488 2.03877,-4.87947 2.0669,-16.78378 0.0528,-22.33638 -1.88505,-5.19676 -7.70171,-11.31368 -12.77342,-13.43277 -5.95355,-2.48755 -18.08608,-2.1375 -23.56332,0.67986 -9.56887,4.92199 -13.83269,11.92652 -13.8211,22.70504 0.0134,12.44825 4.29654,20.17026 15.91944,28.70087 7.09136,5.20469 11.16596,5.29328 18.7786,0.40826 z"
       id="path32" />
  </g>
  <rect
     style="fill:#a543d9;fill-opacity:1;stroke-width:18.0051;stroke-linecap:round;stroke-linejoin:round"
     id="rect34"
     width="696.125"
     height="278.77594"
     x="1.9375209"
     y="169.81192" />
  <path
     d="m 101.48106,353.72406 v 0.78125 h 75.78134 v 34.11462 H 54.34559 v -32.03129 l 53.51569,-51.17193 q 16.14585,-15.49481 22.65627,-25.91149 6.64064,-10.54689 6.64064,-22.13545 0,-25.78128 -27.73441,-25.78128 -24.08857,0 -46.09381,19.14065 v -36.19796 q 24.34899,-15.75523 54.94799,-15.75523 28.64586,0 44.66151,14.45314 16.14585,14.32294 16.14585,38.80214 0,32.68233 -39.19275,67.5782 z m 169.49875,38.15109 q -66.66675,0 -66.66675,-93.61991 0,-48.56777 17.96877,-73.95842 18.09899,-25.52087 52.34382,-25.52087 65.10424,0 65.10424,95.18241 0,47.39589 -17.83856,72.65634 -17.70835,25.26045 -50.91152,25.26045 z m 1.82292,-161.71895 q -26.69274,0 -26.69274,67.05737 0,63.15112 26.17191,63.15112 25.52086,0 25.52086,-65.10425 0,-65.10424 -25.00003,-65.10424 z m 223.79569,118.75014 h -22.39586 v 39.71359 h -37.50004 v -39.71359 h -81.38031 v -26.1719 l 78.38551,-120.83348 h 40.49484 v 117.70847 h 22.39586 z m -59.37507,-105.8595 h -0.78125 q -1.82292,4.68751 -7.03126,14.58335 l -39.97401,61.97924 h 47.26569 V 260.8854 q 0,-7.81251 0.52083,-17.83856 z m 116.37367,48.56777 v -0.65105 q -32.03129,-13.15105 -32.03129,-42.57817 0,-21.61461 17.18752,-35.54692 17.18752,-14.06252 44.4011,-14.06252 27.73441,0 44.27089,13.15106 16.53647,13.02085 16.53647,33.724 0,30.599 -35.41671,45.05214 v 0.52083 q 19.01044,5.59897 29.42712,18.48961 10.54689,12.76043 10.54689,28.77607 0,24.73962 -18.3594,39.06255 -18.22918,14.32294 -51.04172,14.32294 -28.38546,0 -45.83339,-13.93231 -17.31773,-14.06252 -17.31773,-37.10942 0,-33.46359 37.63025,-49.21881 z m 51.69277,-42.44797 q 0,-9.50522 -6.1198,-15.10419 -5.98959,-5.72917 -16.01564,-5.72917 -9.76564,0 -16.27606,5.98959 -6.38022,5.85938 -6.38022,15.10419 0,17.44793 22.39586,26.43232 22.39586,-9.2448 22.39586,-26.69274 z m -24.21878,58.07299 q -26.1719,10.28647 -26.1719,31.51045 0,10.15626 7.94271,16.7969 8.07293,6.64063 19.53128,6.64063 12.3698,0 19.9219,-6.51042 7.55209,-6.51043 7.55209,-17.18753 0,-21.35419 -28.77608,-31.25003 z"
     id="text34"
     style="font-weight:bold;font-size:266.667px;line-height:0.9;font-family:'Microsoft PhagsPa';-inkscape-font-specification:'Microsoft PhagsPa Bold';text-align:center;letter-spacing:1.66px;text-anchor:middle;fill:#ffffff;stroke-width:22.2009;stroke-linecap:round;stroke-linejoin:round"
     aria-label="2048" />
  <path
     d="M 213.83694,525.26638 H 198.8262 v -49.2249 q 0,-3.06647 0.0636,-5.86396 0.0636,-2.85127 0.19082,-6.45572 h -0.31803 q -0.63604,1.56014 -1.14488,2.79748 -0.50884,1.18355 -1.08129,2.52849 l -26.77762,56.21861 h -10.43119 l -26.84123,-55.73443 q -0.57245,-1.18355 -1.14488,-2.4209 -0.50884,-1.29114 -1.33571,-3.38925 h -0.38163 q 0.19082,3.17407 0.25443,6.56332 0.0636,3.38926 0.0636,7.37029 v 47.61097 h -14.18387 v -77.14592 h 21.49843 l 23.7246,50.13947 q 1.3357,2.79748 2.16255,4.7342 0.82687,1.88292 1.65373,4.14242 h 0.38163 q 1.08128,-2.58228 2.03535,-4.6804 0.95408,-2.09811 1.97175,-4.35762 l 24.10622,-49.97807 h 20.54436 z m 37.50818,0 h -15.13794 v -77.14592 h 15.13794 z m 99.7773,0 h -16.60086 l -42.67882,-55.19645 q -1.2721,-1.72153 -2.03536,-2.74368 -0.69965,-1.02216 -1.3993,-2.04431 h -0.31803 q 0.12721,1.50633 0.19082,4.19621 0.0636,2.63609 0.0636,6.45573 v 49.3325 h -14.62911 v -77.14592 h 17.61854 l 41.40673,54.0129 q 1.14489,1.61393 1.97175,2.85128 0.89046,1.18355 1.78094,2.5823 h 0.25441 q -0.12721,-1.50634 -0.19082,-4.19623 -0.0636,-2.68988 -0.0636,-6.56332 v -48.68693 h 14.6291 z m 37.50818,0 h -15.13794 v -77.14592 h 15.13794 z m 99.7773,0 h -16.60085 l -42.67883,-55.19645 q -1.2721,-1.72153 -2.03536,-2.74368 -0.69965,-1.02216 -1.3993,-2.04431 h -0.31803 q 0.12721,1.50633 0.19082,4.19621 0.0636,2.63609 0.0636,6.45573 v 49.3325 h -14.62911 v -77.14592 h 17.61854 l 41.40673,54.0129 q 1.14489,1.61393 1.97175,2.85128 0.89046,1.18355 1.78094,2.5823 h 0.25441 q -0.12721,-1.50634 -0.19082,-4.19623 -0.0636,-2.68988 -0.0636,-6.56332 v -48.68693 h 14.6291 z m 95.70658,-7.96206 q -6.6149,4.14242 -15.32876,6.72471 -8.71386,2.5285 -18.12737,2.5285 -21.05319,0 -33.39252,-10.49056 -12.33934,-10.49055 -12.33934,-28.2438 0,-18.23742 12.33934,-29.58873 12.33933,-11.40512 32.05682,-11.40512 12.84817,0 21.62563,4.30381 8.77747,4.25002 13.29342,11.62031 l -12.65737,5.16458 q -3.37105,-5.00318 -8.84106,-7.42409 -5.47002,-2.42089 -12.65736,-2.42089 -12.91178,0 -21.0532,7.80067 -8.07781,7.80067 -8.07781,20.9811 0,13.50323 8.07781,20.98111 8.14142,7.47788 21.43483,7.47788 5.15198,0 9.98596,-1.07595 4.83396,-1.12976 8.52303,-3.28166 V 494.97827 H 548.7502 v -11.02853 h 35.36428 z"
     id="text35"
     style="font-weight:600;font-size:119.8px;line-height:0.9;font-family:'Segoe UI Variable';-inkscape-font-specification:'Segoe UI Variable Semi-Bold';text-align:center;letter-spacing:1.03577px;text-anchor:middle;fill:#ffffff;stroke-width:13.8525;stroke-linecap:round;stroke-linejoin:round"
     aria-label="MINING" />
</svg>
