<?xml version="1.0" encoding="UTF-8" standalone="no"?>
<!-- Created with Inkscape (http://www.inkscape.org/) -->

<svg
   width="1024mm"
   height="1024mm"
   viewBox="0 0 1024 1024"
   version="1.1"
   id="svg1"
   xml:space="preserve"
   inkscape:version="1.3.2 (091e20e, 2023-11-25, custom)"
   sodipodi:docname="logo4.svg"
   inkscape:export-filename="embed.png"
   inkscape:export-xdpi="25.4"
   inkscape:export-ydpi="25.4"
   xmlns:inkscape="http://www.inkscape.org/namespaces/inkscape"
   xmlns:sodipodi="http://sodipodi.sourceforge.net/DTD/sodipodi-0.dtd"
   xmlns="http://www.w3.org/2000/svg"
   xmlns:svg="http://www.w3.org/2000/svg"><sodipodi:namedview
     id="namedview1"
     pagecolor="#ffffff"
     bordercolor="#000000"
     borderopacity="0.25"
     inkscape:showpageshadow="2"
     inkscape:pageopacity="0.0"
     inkscape:pagecheckerboard="0"
     inkscape:deskcolor="#d1d1d1"
     inkscape:document-units="mm"
     inkscape:zoom="0.09322937"
     inkscape:cx="1861.0015"
     inkscape:cy="2005.8057"
     inkscape:window-width="1440"
     inkscape:window-height="830"
     inkscape:window-x="-6"
     inkscape:window-y="-6"
     inkscape:window-maximized="1"
     inkscape:current-layer="layer1" /><defs
     id="defs1"><filter
       inkscape:collect="always"
       style="color-interpolation-filters:sRGB"
       id="filter1"
       x="-0.12497798"
       y="-0.11399555"
       width="1.249956"
       height="1.2279911"><feGaussianBlur
         inkscape:collect="always"
         stdDeviation="29.342205"
         id="feGaussianBlur1" /></filter><filter
       inkscape:collect="always"
       style="color-interpolation-filters:sRGB"
       id="filter2"
       x="-0.067105074"
       y="-0.061208223"
       width="1.1342101"
       height="1.1224164"><feGaussianBlur
         inkscape:collect="always"
         stdDeviation="15.754863"
         id="feGaussianBlur2" /></filter><filter
       inkscape:collect="always"
       style="color-interpolation-filters:sRGB"
       id="filter3"
       x="-0.0083591092"
       y="-0.0076245534"
       width="1.0167182"
       height="1.0152491"><feGaussianBlur
         inkscape:collect="always"
         stdDeviation="1.9625434"
         id="feGaussianBlur3" /></filter><meshgradient
       inkscape:collect="always"
       id="meshgradient2"
       gradientUnits="userSpaceOnUse"
       x="0"
       y="0"><meshrow
         id="meshrow2686"><meshpatch
           id="meshpatch2686"><stop
             path="c 804.802,-16.0541  619.457,-385.967  790.122,-385.966"
             style="stop-color:#002255;stop-opacity:1"
             id="stop2686" /><stop
             path="c 0.00124074,170.667  244.07,142.676  -278.119,897.967"
             style="stop-color:#002255;stop-opacity:1"
             id="stop2687" /><stop
             path="c -522.577,465.429  -755.681,312.179  -926.345,312.178"
             style="stop-color:#80b3ff;stop-opacity:1"
             id="stop2688" /><stop
             path="c 0.00298213,-170.667  386.25,-187.944  414.342,-824.179"
             style="stop-color:#002255;stop-opacity:1"
             id="stop2689" /></meshpatch><meshpatch
           id="meshpatch2689"><stop
             path="c 170.667,-0.00226362  1209.7,-556.245  1380.36,-556.243"
             id="stop2690" /><stop
             path="c -0.0105296,170.667  -743.549,959.998  -743.488,1130.68"
             style="stop-color:#002255;stop-opacity:1"
             id="stop2691" /><stop
             path="c -170.729,0.0296273  -154.089,-317.824  -914.991,323.53"
             style="stop-color:#002255;stop-opacity:1"
             id="stop2692" /></meshpatch></meshrow><meshrow
         id="meshrow2692"><meshpatch
           id="meshpatch2692"><stop
             path="c -488.133,539.605  -374.615,704.597  -374.617,875.261"
             id="stop2693" /><stop
             path="c -170.664,-0.000379864  -1249.45,533.545  -1420.13,533.542"
             style="stop-color:#002255;stop-opacity:1"
             id="stop2694" /><stop
             path="c 0.00605937,-170.667  868.404,-925.92  868.402,-1096.62"
             style="stop-color:#002255;stop-opacity:1"
             id="stop2695" /></meshpatch><meshpatch
           id="meshpatch2695"><stop
             path="c -0.0614252,170.697  -387.002,94.9741  -403.056,835.56"
             id="stop2696" /><stop
             path="c -772.694,12.0406  -715.949,363.263  -886.552,363.231"
             style="stop-color:#002255;stop-opacity:1"
             id="stop2697" /></meshpatch></meshrow></meshgradient></defs><g
     inkscape:label="Слой 1"
     inkscape:groupmode="layer"
     id="layer1"><rect
       style="fill:url(#meshgradient2);fill-opacity:1;stroke-width:1.55141;stroke-linecap:round;stroke-linejoin:round"
       id="rect2"
       width="1024"
       height="1024"
       x="0"
       y="0" /><g
       id="g2"
       transform="matrix(1.4713776,0,0,1.4713776,-665.10208,-197.4324)"><path
         id="path6"
         style="fill:#0c00f5;stroke-width:17.3119;stroke-linecap:round;stroke-linejoin:round"
         d="m 657.24689,363.47256 145.88198,63.17692 0.56414,202.11715 -145.36971,-73.75665 z"
         sodipodi:nodetypes="ccccc" /><path
         id="rect1"
         style="fill:#0c00f5;stroke-width:10.187;stroke-linecap:round;stroke-linejoin:round"
         d="M 817.30906,427.33903 944.7968,361.47236 943.45956,556.51298 817.3596,627.92631 Z"
         sodipodi:nodetypes="ccccc" /><path
         id="path8"
         style="fill:#0737f2;fill-opacity:1;stroke-width:17.9837;stroke-linecap:round;stroke-linejoin:round"
         d="M 792.54041,294.76915 932.48674,351.21689 808.879,413.3335 670.39525,353.38124 Z"
         sodipodi:nodetypes="ccccc" /><path
         id="path5"
         style="fill:#04ede8;fill-opacity:1;stroke-width:0.741469;filter:url(#filter1)"
         d="m 790.98732,173.27785 c -18.71392,9.34311 -38.18084,17.38552 -57.23665,26.12525 l -146.69536,66.56722 -46.31566,20.98563 c -4.8818,2.1851 -17.97744,7.515 -21.7663,9.82592 l -0.70817,328.76528 c 2.58971,2.45945 17.58175,10.47251 21.57658,12.76141 l 62.21988,35.36321 c 49.98009,28.72355 100.14822,57.13032 150.49094,85.21694 19.00873,10.67496 38.41148,21.78555 57.51605,32.14389 2.47957,-0.0527 7.44571,-3.36973 9.80422,-4.79929 23.65876,-14.50291 47.13312,-29.30494 70.41776,-44.40277 l 94.39264,-59.95335 c 23.80335,-14.79677 47.44415,-29.85404 70.91765,-45.16886 5.3882,-3.49825 10.8171,-6.93237 16.2862,-10.30384 2.8806,-1.79211 7.2734,-4.33843 9.8477,-6.36043 l -0.7749,-333.98165 c -13.1643,-6.08944 -32.0931,-12.82741 -46.0276,-18.19788 L 947.87924,234.42887 833.33953,189.50331 c -5.47506,-2.15177 -39.50805,-16.16773 -42.35221,-16.22546 z m 8.92931,20.68006 h 0.002 l 250.12427,97.78862 c -11.3029,5.94511 -23.3961,11.80477 -34.8563,17.62585 l -68.88844,34.4494 c -38.42072,-15.65001 -77.53756,-30.07933 -116.06057,-45.51061 -10.01664,-4.01283 -20.81012,-8.01054 -30.55072,-12.55722 -0.14012,-30.59881 -0.0617,-61.19872 0.2298,-91.79604 z m -17.54167,1.61183 c 0.14292,0.18468 0.28472,0.36857 0.42709,0.55322 0.19336,22.10744 0.13451,70.16832 0.14852,90.3739 -14.76364,7.77433 -32.61161,16.07004 -47.7858,23.38962 -17.00417,8.303 -34.18068,16.24648 -51.51917,23.82408 -8.46243,3.79264 -17.7611,8.19651 -26.27453,11.66659 -7.25235,-2.57586 -16.07965,-6.55335 -23.32304,-9.57684 l -50.01007,-21.21447 c -10.48381,-4.53463 -22.33238,-9.00579 -32.53202,-13.84462 z m 10.16461,99.19916 139.94688,56.44731 -123.60689,62.11695 -138.48403,-59.95192 z m 270.28903,9.81579 0.157,0.15217 c 0.4013,1.19674 0.2816,10.69329 0.3127,12.92361 0.2382,19.51535 0.3327,39.03182 0.2839,58.54862 l 0.3214,226.39316 c -23.6411,-11.65146 -48.1621,-22.33205 -71.80826,-33.9049 l -34.10474,-16.098 -0.39682,-194.74889 z m -526.32479,8.13447 c 36.21158,15.13019 72.26399,30.6523 108.14293,46.56056 l -0.3447,192.83439 -38.43753,20.58592 c -17.84125,9.36181 -35.44821,19.27552 -53.24406,28.73196 -5.54792,2.94735 -11.26764,6.02184 -16.58744,9.34659 l 0.2438,-215.01911 c 0.13732,-27.52387 -0.26342,-55.58096 0.227,-83.04031 z m 408.29362,48.75311 -1.33815,195.04142 -126.09907,71.41285 -0.0504,-200.58798 z m -287.54995,1.99994 145.88126,63.17701 0.56497,197.1471 -145.37038,-68.78587 z m 292.18261,204.38075 c 33.67961,16.80825 69.27881,32.09695 102.86011,49.27013 L 882.79782,725.50372 c -5.70795,3.39223 -11.57899,7.44504 -17.27544,11.00185 l -46.26802,28.76817 -0.37357,-121.65468 z m -298.25767,0.26931 v 0 c -10e-4,5.3e-4 -0.002,9e-4 0,0.001 50.63502,25.43019 100.96597,51.46357 150.98333,78.08896 V 766.8189 C 780.68651,754.35553 759.08163,742.126 737.34532,730.13495 674.55263,695.05842 612.01775,659.52213 549.74602,623.52833 l 58.13594,-31.95271 c 14.58204,-7.89839 28.79557,-15.29274 43.29046,-23.45189 -10e-4,-7e-4 0,-7.9e-4 0,-10e-4 z" /><path
         id="path1"
         style="fill:#04ede8;fill-opacity:1;stroke-width:0.741469;filter:url(#filter2)"
         d="m 790.98732,173.27785 c -18.71392,9.34311 -38.18084,17.38552 -57.23665,26.12525 l -146.69536,66.56722 -46.31566,20.98563 c -4.8818,2.1851 -17.97744,7.515 -21.7663,9.82592 l -0.70817,328.76528 c 2.58971,2.45945 17.58175,10.47251 21.57658,12.76141 l 62.21988,35.36321 c 49.98009,28.72355 100.14822,57.13032 150.49094,85.21694 19.00873,10.67496 38.41148,21.78555 57.51605,32.14389 2.47957,-0.0527 7.44571,-3.36973 9.80422,-4.79929 23.65876,-14.50291 47.13312,-29.30494 70.41776,-44.40277 l 94.39264,-59.95335 c 23.80335,-14.79677 47.44415,-29.85404 70.91765,-45.16886 5.3882,-3.49825 10.8171,-6.93237 16.2862,-10.30384 2.8806,-1.79211 7.2734,-4.33843 9.8477,-6.36043 l -0.7749,-333.98165 c -13.1643,-6.08944 -32.0931,-12.82741 -46.0276,-18.19788 L 947.87924,234.42887 833.33953,189.50331 c -5.47506,-2.15177 -39.50805,-16.16773 -42.35221,-16.22546 z m 8.92931,20.68006 h 0.002 l 250.12427,97.78862 c -11.3029,5.94511 -23.3961,11.80477 -34.8563,17.62585 l -68.88844,34.4494 c -38.42072,-15.65001 -77.53756,-30.07933 -116.06057,-45.51061 -10.01664,-4.01283 -20.81012,-8.01054 -30.55072,-12.55722 -0.14012,-30.59881 -0.0617,-61.19872 0.2298,-91.79604 z m -17.54167,1.61183 c 0.14292,0.18468 0.28472,0.36857 0.42709,0.55322 0.19336,22.10744 0.13451,70.16832 0.14852,90.3739 -14.76364,7.77433 -32.61161,16.07004 -47.7858,23.38962 -17.00417,8.303 -34.18068,16.24648 -51.51917,23.82408 -8.46243,3.79264 -17.7611,8.19651 -26.27453,11.66659 -7.25235,-2.57586 -16.07965,-6.55335 -23.32304,-9.57684 l -50.01007,-21.21447 c -10.48381,-4.53463 -22.33238,-9.00579 -32.53202,-13.84462 z m 10.16461,99.19916 139.94688,56.44731 -123.60689,62.11695 -138.48403,-59.95192 z m 270.28903,9.81579 0.157,0.15217 c 0.4013,1.19674 0.2816,10.69329 0.3127,12.92361 0.2382,19.51535 0.3327,39.03182 0.2839,58.54862 l 0.3214,226.39316 c -23.6411,-11.65146 -48.1621,-22.33205 -71.80826,-33.9049 l -34.10474,-16.098 -0.39682,-194.74889 z m -526.32479,8.13447 c 36.21158,15.13019 72.26399,30.6523 108.14293,46.56056 l -0.3447,192.83439 -38.43753,20.58592 c -17.84125,9.36181 -35.44821,19.27552 -53.24406,28.73196 -5.54792,2.94735 -11.26764,6.02184 -16.58744,9.34659 l 0.2438,-215.01911 c 0.13732,-27.52387 -0.26342,-55.58096 0.227,-83.04031 z m 408.29362,48.75311 -1.33815,195.04142 -126.09907,71.41285 -0.0504,-200.58798 z m -287.54995,1.99994 145.88126,63.17701 0.56497,197.1471 -145.37038,-68.78587 z m 292.18261,204.38075 c 33.67961,16.80825 69.27881,32.09695 102.86011,49.27013 L 882.79782,725.50372 c -5.70795,3.39223 -11.57899,7.44504 -17.27544,11.00185 l -46.26802,28.76817 -0.37357,-121.65468 z m -298.25767,0.26931 v 0 c -10e-4,5.3e-4 -0.002,9e-4 0,0.001 50.63502,25.43019 100.96597,51.46357 150.98333,78.08896 V 766.8189 C 780.68651,754.35553 759.08163,742.126 737.34532,730.13495 674.55263,695.05842 612.01775,659.52213 549.74602,623.52833 l 58.13594,-31.95271 c 14.58204,-7.89839 28.79557,-15.29274 43.29046,-23.45189 -10e-4,-7e-4 0,-7.9e-4 0,-10e-4 z" /><path
         id="path2"
         style="fill:#e6fefe;fill-opacity:1;stroke-width:0.741469;filter:url(#filter3)"
         d="m 790.98732,173.27785 c -18.71392,9.34311 -38.18084,17.38552 -57.23665,26.12525 l -146.69536,66.56722 -46.31566,20.98563 c -4.8818,2.1851 -17.97744,7.515 -21.7663,9.82592 l -0.70817,328.76528 c 2.58971,2.45945 17.58175,10.47251 21.57658,12.76141 l 62.21988,35.36321 c 49.98009,28.72355 100.14822,57.13032 150.49094,85.21694 19.00873,10.67496 38.41148,21.78555 57.51605,32.14389 2.47957,-0.0527 7.44571,-3.36973 9.80422,-4.79929 23.65876,-14.50291 47.13312,-29.30494 70.41776,-44.40277 l 94.39264,-59.95335 c 23.80335,-14.79677 47.44415,-29.85404 70.91765,-45.16886 5.3882,-3.49825 10.8171,-6.93237 16.2862,-10.30384 2.8806,-1.79211 7.2734,-4.33843 9.8477,-6.36043 l -0.7749,-333.98165 c -13.1643,-6.08944 -32.0931,-12.82741 -46.0276,-18.19788 L 947.87924,234.42887 833.33953,189.50331 c -5.47506,-2.15177 -39.50805,-16.16773 -42.35221,-16.22546 z m 8.92931,20.68006 h 0.002 l 250.12427,97.78862 c -11.3029,5.94511 -23.3961,11.80477 -34.8563,17.62585 l -68.88844,34.4494 c -38.42072,-15.65001 -77.53756,-30.07933 -116.06057,-45.51061 -10.01664,-4.01283 -20.81012,-8.01054 -30.55072,-12.55722 -0.14012,-30.59881 -0.0617,-61.19872 0.2298,-91.79604 z m -17.54167,1.61183 c 0.14292,0.18468 0.28472,0.36857 0.42709,0.55322 0.19336,22.10744 0.13451,70.16832 0.14852,90.3739 -14.76364,7.77433 -32.61161,16.07004 -47.7858,23.38962 -17.00417,8.303 -34.18068,16.24648 -51.51917,23.82408 -8.46243,3.79264 -17.7611,8.19651 -26.27453,11.66659 -7.25235,-2.57586 -16.07965,-6.55335 -23.32304,-9.57684 l -50.01007,-21.21447 c -10.48381,-4.53463 -22.33238,-9.00579 -32.53202,-13.84462 z m 10.16461,99.19916 139.94688,56.44731 -123.60689,62.11695 -138.48403,-59.95192 z m 270.28903,9.81579 0.157,0.15217 c 0.4013,1.19674 0.2816,10.69329 0.3127,12.92361 0.2382,19.51535 0.3327,39.03182 0.2839,58.54862 l 0.3214,226.39316 c -23.6411,-11.65146 -48.1621,-22.33205 -71.80826,-33.9049 l -34.10474,-16.098 -0.39682,-194.74889 z m -526.32479,8.13447 c 36.21158,15.13019 72.26399,30.6523 108.14293,46.56056 l -0.3447,192.83439 -38.43753,20.58592 c -17.84125,9.36181 -35.44821,19.27552 -53.24406,28.73196 -5.54792,2.94735 -11.26764,6.02184 -16.58744,9.34659 l 0.2438,-215.01911 c 0.13732,-27.52387 -0.26342,-55.58096 0.227,-83.04031 z m 408.29362,48.75311 -1.33815,195.04142 -126.09907,71.41285 -0.0504,-200.58798 z m -287.54995,1.99994 145.88126,63.17701 0.56497,197.1471 -145.37038,-68.78587 z m 292.18261,204.38075 c 33.67961,16.80825 69.27881,32.09695 102.86011,49.27013 L 882.79782,725.50372 c -5.70795,3.39223 -11.57899,7.44504 -17.27544,11.00185 l -46.26802,28.76817 -0.37357,-121.65468 z m -298.25767,0.26931 v 0 c -10e-4,5.3e-4 -0.002,9e-4 0,0.001 50.63502,25.43019 100.96597,51.46357 150.98333,78.08896 V 766.8189 C 780.68651,754.35553 759.08163,742.126 737.34532,730.13495 674.55263,695.05842 612.01775,659.52213 549.74602,623.52833 l 58.13594,-31.95271 c 14.58204,-7.89839 28.79557,-15.29274 43.29046,-23.45189 -10e-4,-7e-4 0,-7.9e-4 0,-10e-4 z" /></g></g><script
     id="mesh_polyfill"
     type="text/javascript">
!function(){const t=&quot;http://www.w3.org/2000/svg&quot;,e=&quot;http://www.w3.org/1999/xlink&quot;,s=&quot;http://www.w3.org/1999/xhtml&quot;,r=2;if(document.createElementNS(t,&quot;meshgradient&quot;).x)return;const n=(t,e,s,r)=&gt;{let n=new x(.5*(e.x+s.x),.5*(e.y+s.y)),o=new x(.5*(t.x+e.x),.5*(t.y+e.y)),i=new x(.5*(s.x+r.x),.5*(s.y+r.y)),a=new x(.5*(n.x+o.x),.5*(n.y+o.y)),h=new x(.5*(n.x+i.x),.5*(n.y+i.y)),l=new x(.5*(a.x+h.x),.5*(a.y+h.y));return[[t,o,a,l],[l,h,i,r]]},o=t=&gt;{let e=t[0].distSquared(t[1]),s=t[2].distSquared(t[3]),r=.25*t[0].distSquared(t[2]),n=.25*t[1].distSquared(t[3]),o=e&gt;s?e:s,i=r&gt;n?r:n;return 18*(o&gt;i?o:i)},i=(t,e)=&gt;Math.sqrt(t.distSquared(e)),a=(t,e)=&gt;t.scale(2/3).add(e.scale(1/3)),h=t=&gt;{let e,s,r,n,o,i,a,h=new g;return t.match(/(\w+\(\s*[^)]+\))+/g).forEach(t=&gt;{let l=t.match(/[\w.-]+/g),d=l.shift();switch(d){case&quot;translate&quot;:2===l.length?e=new g(1,0,0,1,l[0],l[1]):(console.error(&quot;mesh.js: translate does not have 2 arguments!&quot;),e=new g(1,0,0,1,0,0)),h=h.append(e);break;case&quot;scale&quot;:1===l.length?s=new g(l[0],0,0,l[0],0,0):2===l.length?s=new g(l[0],0,0,l[1],0,0):(console.error(&quot;mesh.js: scale does not have 1 or 2 arguments!&quot;),s=new g(1,0,0,1,0,0)),h=h.append(s);break;case&quot;rotate&quot;:if(3===l.length&amp;&amp;(e=new g(1,0,0,1,l[1],l[2]),h=h.append(e)),l[0]){r=l[0]*Math.PI/180;let t=Math.cos(r),e=Math.sin(r);Math.abs(t)&lt;1e-16&amp;&amp;(t=0),Math.abs(e)&lt;1e-16&amp;&amp;(e=0),a=new g(t,e,-e,t,0,0),h=h.append(a)}else console.error(&quot;math.js: No argument to rotate transform!&quot;);3===l.length&amp;&amp;(e=new g(1,0,0,1,-l[1],-l[2]),h=h.append(e));break;case&quot;skewX&quot;:l[0]?(r=l[0]*Math.PI/180,n=Math.tan(r),o=new g(1,0,n,1,0,0),h=h.append(o)):console.error(&quot;math.js: No argument to skewX transform!&quot;);break;case&quot;skewY&quot;:l[0]?(r=l[0]*Math.PI/180,n=Math.tan(r),i=new g(1,n,0,1,0,0),h=h.append(i)):console.error(&quot;math.js: No argument to skewY transform!&quot;);break;case&quot;matrix&quot;:6===l.length?h=h.append(new g(...l)):console.error(&quot;math.js: Incorrect number of arguments for matrix!&quot;);break;default:console.error(&quot;mesh.js: Unhandled transform type: &quot;+d)}}),h},l=t=&gt;{let e=[],s=t.split(/[ ,]+/);for(let t=0,r=s.length-1;t&lt;r;t+=2)e.push(new x(parseFloat(s[t]),parseFloat(s[t+1])));return e},d=(t,e)=&gt;{for(let s in e)t.setAttribute(s,e[s])},c=(t,e,s,r,n)=&gt;{let o,i,a=[0,0,0,0];for(let h=0;h&lt;3;++h)e[h]&lt;t[h]&amp;&amp;e[h]&lt;s[h]||t[h]&lt;e[h]&amp;&amp;s[h]&lt;e[h]?a[h]=0:(a[h]=.5*((e[h]-t[h])/r+(s[h]-e[h])/n),o=Math.abs(3*(e[h]-t[h])/r),i=Math.abs(3*(s[h]-e[h])/n),a[h]&gt;o?a[h]=o:a[h]&gt;i&amp;&amp;(a[h]=i));return a},u=[[1,0,0,0,0,0,0,0,0,0,0,0,0,0,0,0],[0,0,0,0,1,0,0,0,0,0,0,0,0,0,0,0],[-3,3,0,0,-2,-1,0,0,0,0,0,0,0,0,0,0],[2,-2,0,0,1,1,0,0,0,0,0,0,0,0,0,0],[0,0,0,0,0,0,0,0,1,0,0,0,0,0,0,0],[0,0,0,0,0,0,0,0,0,0,0,0,1,0,0,0],[0,0,0,0,0,0,0,0,-3,3,0,0,-2,-1,0,0],[0,0,0,0,0,0,0,0,2,-2,0,0,1,1,0,0],[-3,0,3,0,0,0,0,0,-2,0,-1,0,0,0,0,0],[0,0,0,0,-3,0,3,0,0,0,0,0,-2,0,-1,0],[9,-9,-9,9,6,3,-6,-3,6,-6,3,-3,4,2,2,1],[-6,6,6,-6,-3,-3,3,3,-4,4,-2,2,-2,-2,-1,-1],[2,0,-2,0,0,0,0,0,1,0,1,0,0,0,0,0],[0,0,0,0,2,0,-2,0,0,0,0,0,1,0,1,0],[-6,6,6,-6,-4,-2,4,2,-3,3,-3,3,-2,-1,-2,-1],[4,-4,-4,4,2,2,-2,-2,2,-2,2,-2,1,1,1,1]],f=t=&gt;{let e=[];for(let s=0;s&lt;16;++s){e[s]=0;for(let r=0;r&lt;16;++r)e[s]+=u[s][r]*t[r]}return e},p=(t,e,s)=&gt;{const r=e*e,n=s*s,o=e*e*e,i=s*s*s;return t[0]+t[1]*e+t[2]*r+t[3]*o+t[4]*s+t[5]*s*e+t[6]*s*r+t[7]*s*o+t[8]*n+t[9]*n*e+t[10]*n*r+t[11]*n*o+t[12]*i+t[13]*i*e+t[14]*i*r+t[15]*i*o},y=t=&gt;{let e=[],s=[],r=[];for(let s=0;s&lt;4;++s)e[s]=[],e[s][0]=n(t[0][s],t[1][s],t[2][s],t[3][s]),e[s][1]=[],e[s][1].push(...n(...e[s][0][0])),e[s][1].push(...n(...e[s][0][1])),e[s][2]=[],e[s][2].push(...n(...e[s][1][0])),e[s][2].push(...n(...e[s][1][1])),e[s][2].push(...n(...e[s][1][2])),e[s][2].push(...n(...e[s][1][3]));for(let t=0;t&lt;8;++t){s[t]=[];for(let r=0;r&lt;4;++r)s[t][r]=[],s[t][r][0]=n(e[0][2][t][r],e[1][2][t][r],e[2][2][t][r],e[3][2][t][r]),s[t][r][1]=[],s[t][r][1].push(...n(...s[t][r][0][0])),s[t][r][1].push(...n(...s[t][r][0][1])),s[t][r][2]=[],s[t][r][2].push(...n(...s[t][r][1][0])),s[t][r][2].push(...n(...s[t][r][1][1])),s[t][r][2].push(...n(...s[t][r][1][2])),s[t][r][2].push(...n(...s[t][r][1][3]))}for(let t=0;t&lt;8;++t){r[t]=[];for(let e=0;e&lt;8;++e)r[t][e]=[],r[t][e][0]=s[t][0][2][e],r[t][e][1]=s[t][1][2][e],r[t][e][2]=s[t][2][2][e],r[t][e][3]=s[t][3][2][e]}return r};class x{constructor(t,e){this.x=t||0,this.y=e||0}toString(){return`(x=${this.x}, y=${this.y})`}clone(){return new x(this.x,this.y)}add(t){return new x(this.x+t.x,this.y+t.y)}scale(t){return void 0===t.x?new x(this.x*t,this.y*t):new x(this.x*t.x,this.y*t.y)}distSquared(t){let e=this.x-t.x,s=this.y-t.y;return e*e+s*s}transform(t){let e=this.x*t.a+this.y*t.c+t.e,s=this.x*t.b+this.y*t.d+t.f;return new x(e,s)}}class g{constructor(t,e,s,r,n,o){void 0===t?(this.a=1,this.b=0,this.c=0,this.d=1,this.e=0,this.f=0):(this.a=t,this.b=e,this.c=s,this.d=r,this.e=n,this.f=o)}toString(){return`affine: ${this.a} ${this.c} ${this.e} \n       ${this.b} ${this.d} ${this.f}`}append(t){t instanceof g||console.error(&quot;mesh.js: argument to Affine.append is not affine!&quot;);let e=this.a*t.a+this.c*t.b,s=this.b*t.a+this.d*t.b,r=this.a*t.c+this.c*t.d,n=this.b*t.c+this.d*t.d,o=this.a*t.e+this.c*t.f+this.e,i=this.b*t.e+this.d*t.f+this.f;return new g(e,s,r,n,o,i)}}class w{constructor(t,e){this.nodes=t,this.colors=e}paintCurve(t,e){if(o(this.nodes)&gt;r){const s=n(...this.nodes);let r=[[],[]],o=[[],[]];for(let t=0;t&lt;4;++t)r[0][t]=this.colors[0][t],r[1][t]=(this.colors[0][t]+this.colors[1][t])/2,o[0][t]=r[1][t],o[1][t]=this.colors[1][t];let i=new w(s[0],r),a=new w(s[1],o);i.paintCurve(t,e),a.paintCurve(t,e)}else{let s=Math.round(this.nodes[0].x);if(s&gt;=0&amp;&amp;s&lt;e){let r=4*(~~this.nodes[0].y*e+s);t[r]=Math.round(this.colors[0][0]),t[r+1]=Math.round(this.colors[0][1]),t[r+2]=Math.round(this.colors[0][2]),t[r+3]=Math.round(this.colors[0][3])}}}}class m{constructor(t,e){this.nodes=t,this.colors=e}split(){let t=[[],[],[],[]],e=[[],[],[],[]],s=[[[],[]],[[],[]]],r=[[[],[]],[[],[]]];for(let s=0;s&lt;4;++s){const r=n(this.nodes[0][s],this.nodes[1][s],this.nodes[2][s],this.nodes[3][s]);t[0][s]=r[0][0],t[1][s]=r[0][1],t[2][s]=r[0][2],t[3][s]=r[0][3],e[0][s]=r[1][0],e[1][s]=r[1][1],e[2][s]=r[1][2],e[3][s]=r[1][3]}for(let t=0;t&lt;4;++t)s[0][0][t]=this.colors[0][0][t],s[0][1][t]=this.colors[0][1][t],s[1][0][t]=(this.colors[0][0][t]+this.colors[1][0][t])/2,s[1][1][t]=(this.colors[0][1][t]+this.colors[1][1][t])/2,r[0][0][t]=s[1][0][t],r[0][1][t]=s[1][1][t],r[1][0][t]=this.colors[1][0][t],r[1][1][t]=this.colors[1][1][t];return[new m(t,s),new m(e,r)]}paint(t,e){let s,n=!1;for(let t=0;t&lt;4;++t)if((s=o([this.nodes[0][t],this.nodes[1][t],this.nodes[2][t],this.nodes[3][t]]))&gt;r){n=!0;break}if(n){let s=this.split();s[0].paint(t,e),s[1].paint(t,e)}else{new w([...this.nodes[0]],[...this.colors[0]]).paintCurve(t,e)}}}class b{constructor(t){this.readMesh(t),this.type=t.getAttribute(&quot;type&quot;)||&quot;bilinear&quot;}readMesh(t){let e=[[]],s=[[]],r=Number(t.getAttribute(&quot;x&quot;)),n=Number(t.getAttribute(&quot;y&quot;));e[0][0]=new x(r,n);let o=t.children;for(let t=0,r=o.length;t&lt;r;++t){e[3*t+1]=[],e[3*t+2]=[],e[3*t+3]=[],s[t+1]=[];let r=o[t].children;for(let n=0,o=r.length;n&lt;o;++n){let o=r[n].children;for(let r=0,i=o.length;r&lt;i;++r){let i=r;0!==t&amp;&amp;++i;let h,d=o[r].getAttribute(&quot;path&quot;),c=&quot;l&quot;;null!=d&amp;&amp;(c=(h=d.match(/\s*([lLcC])\s*(.*)/))[1]);let u=l(h[2]);switch(c){case&quot;l&quot;:0===i?(e[3*t][3*n+3]=u[0].add(e[3*t][3*n]),e[3*t][3*n+1]=a(e[3*t][3*n],e[3*t][3*n+3]),e[3*t][3*n+2]=a(e[3*t][3*n+3],e[3*t][3*n])):1===i?(e[3*t+3][3*n+3]=u[0].add(e[3*t][3*n+3]),e[3*t+1][3*n+3]=a(e[3*t][3*n+3],e[3*t+3][3*n+3]),e[3*t+2][3*n+3]=a(e[3*t+3][3*n+3],e[3*t][3*n+3])):2===i?(0===n&amp;&amp;(e[3*t+3][3*n+0]=u[0].add(e[3*t+3][3*n+3])),e[3*t+3][3*n+1]=a(e[3*t+3][3*n],e[3*t+3][3*n+3]),e[3*t+3][3*n+2]=a(e[3*t+3][3*n+3],e[3*t+3][3*n])):(e[3*t+1][3*n]=a(e[3*t][3*n],e[3*t+3][3*n]),e[3*t+2][3*n]=a(e[3*t+3][3*n],e[3*t][3*n]));break;case&quot;L&quot;:0===i?(e[3*t][3*n+3]=u[0],e[3*t][3*n+1]=a(e[3*t][3*n],e[3*t][3*n+3]),e[3*t][3*n+2]=a(e[3*t][3*n+3],e[3*t][3*n])):1===i?(e[3*t+3][3*n+3]=u[0],e[3*t+1][3*n+3]=a(e[3*t][3*n+3],e[3*t+3][3*n+3]),e[3*t+2][3*n+3]=a(e[3*t+3][3*n+3],e[3*t][3*n+3])):2===i?(0===n&amp;&amp;(e[3*t+3][3*n+0]=u[0]),e[3*t+3][3*n+1]=a(e[3*t+3][3*n],e[3*t+3][3*n+3]),e[3*t+3][3*n+2]=a(e[3*t+3][3*n+3],e[3*t+3][3*n])):(e[3*t+1][3*n]=a(e[3*t][3*n],e[3*t+3][3*n]),e[3*t+2][3*n]=a(e[3*t+3][3*n],e[3*t][3*n]));break;case&quot;c&quot;:0===i?(e[3*t][3*n+1]=u[0].add(e[3*t][3*n]),e[3*t][3*n+2]=u[1].add(e[3*t][3*n]),e[3*t][3*n+3]=u[2].add(e[3*t][3*n])):1===i?(e[3*t+1][3*n+3]=u[0].add(e[3*t][3*n+3]),e[3*t+2][3*n+3]=u[1].add(e[3*t][3*n+3]),e[3*t+3][3*n+3]=u[2].add(e[3*t][3*n+3])):2===i?(e[3*t+3][3*n+2]=u[0].add(e[3*t+3][3*n+3]),e[3*t+3][3*n+1]=u[1].add(e[3*t+3][3*n+3]),0===n&amp;&amp;(e[3*t+3][3*n+0]=u[2].add(e[3*t+3][3*n+3]))):(e[3*t+2][3*n]=u[0].add(e[3*t+3][3*n]),e[3*t+1][3*n]=u[1].add(e[3*t+3][3*n]));break;case&quot;C&quot;:0===i?(e[3*t][3*n+1]=u[0],e[3*t][3*n+2]=u[1],e[3*t][3*n+3]=u[2]):1===i?(e[3*t+1][3*n+3]=u[0],e[3*t+2][3*n+3]=u[1],e[3*t+3][3*n+3]=u[2]):2===i?(e[3*t+3][3*n+2]=u[0],e[3*t+3][3*n+1]=u[1],0===n&amp;&amp;(e[3*t+3][3*n+0]=u[2])):(e[3*t+2][3*n]=u[0],e[3*t+1][3*n]=u[1]);break;default:console.error(&quot;mesh.js: &quot;+c+&quot; invalid path type.&quot;)}if(0===t&amp;&amp;0===n||r&gt;0){let e=window.getComputedStyle(o[r]).stopColor.match(/^rgb\s*\(\s*(\d+)\s*,\s*(\d+)\s*,\s*(\d+)\s*\)$/i),a=window.getComputedStyle(o[r]).stopOpacity,h=255;a&amp;&amp;(h=Math.floor(255*a)),e&amp;&amp;(0===i?(s[t][n]=[],s[t][n][0]=Math.floor(e[1]),s[t][n][1]=Math.floor(e[2]),s[t][n][2]=Math.floor(e[3]),s[t][n][3]=h):1===i?(s[t][n+1]=[],s[t][n+1][0]=Math.floor(e[1]),s[t][n+1][1]=Math.floor(e[2]),s[t][n+1][2]=Math.floor(e[3]),s[t][n+1][3]=h):2===i?(s[t+1][n+1]=[],s[t+1][n+1][0]=Math.floor(e[1]),s[t+1][n+1][1]=Math.floor(e[2]),s[t+1][n+1][2]=Math.floor(e[3]),s[t+1][n+1][3]=h):3===i&amp;&amp;(s[t+1][n]=[],s[t+1][n][0]=Math.floor(e[1]),s[t+1][n][1]=Math.floor(e[2]),s[t+1][n][2]=Math.floor(e[3]),s[t+1][n][3]=h))}}e[3*t+1][3*n+1]=new x,e[3*t+1][3*n+2]=new x,e[3*t+2][3*n+1]=new x,e[3*t+2][3*n+2]=new x,e[3*t+1][3*n+1].x=(-4*e[3*t][3*n].x+6*(e[3*t][3*n+1].x+e[3*t+1][3*n].x)+-2*(e[3*t][3*n+3].x+e[3*t+3][3*n].x)+3*(e[3*t+3][3*n+1].x+e[3*t+1][3*n+3].x)+-1*e[3*t+3][3*n+3].x)/9,e[3*t+1][3*n+2].x=(-4*e[3*t][3*n+3].x+6*(e[3*t][3*n+2].x+e[3*t+1][3*n+3].x)+-2*(e[3*t][3*n].x+e[3*t+3][3*n+3].x)+3*(e[3*t+3][3*n+2].x+e[3*t+1][3*n].x)+-1*e[3*t+3][3*n].x)/9,e[3*t+2][3*n+1].x=(-4*e[3*t+3][3*n].x+6*(e[3*t+3][3*n+1].x+e[3*t+2][3*n].x)+-2*(e[3*t+3][3*n+3].x+e[3*t][3*n].x)+3*(e[3*t][3*n+1].x+e[3*t+2][3*n+3].x)+-1*e[3*t][3*n+3].x)/9,e[3*t+2][3*n+2].x=(-4*e[3*t+3][3*n+3].x+6*(e[3*t+3][3*n+2].x+e[3*t+2][3*n+3].x)+-2*(e[3*t+3][3*n].x+e[3*t][3*n+3].x)+3*(e[3*t][3*n+2].x+e[3*t+2][3*n].x)+-1*e[3*t][3*n].x)/9,e[3*t+1][3*n+1].y=(-4*e[3*t][3*n].y+6*(e[3*t][3*n+1].y+e[3*t+1][3*n].y)+-2*(e[3*t][3*n+3].y+e[3*t+3][3*n].y)+3*(e[3*t+3][3*n+1].y+e[3*t+1][3*n+3].y)+-1*e[3*t+3][3*n+3].y)/9,e[3*t+1][3*n+2].y=(-4*e[3*t][3*n+3].y+6*(e[3*t][3*n+2].y+e[3*t+1][3*n+3].y)+-2*(e[3*t][3*n].y+e[3*t+3][3*n+3].y)+3*(e[3*t+3][3*n+2].y+e[3*t+1][3*n].y)+-1*e[3*t+3][3*n].y)/9,e[3*t+2][3*n+1].y=(-4*e[3*t+3][3*n].y+6*(e[3*t+3][3*n+1].y+e[3*t+2][3*n].y)+-2*(e[3*t+3][3*n+3].y+e[3*t][3*n].y)+3*(e[3*t][3*n+1].y+e[3*t+2][3*n+3].y)+-1*e[3*t][3*n+3].y)/9,e[3*t+2][3*n+2].y=(-4*e[3*t+3][3*n+3].y+6*(e[3*t+3][3*n+2].y+e[3*t+2][3*n+3].y)+-2*(e[3*t+3][3*n].y+e[3*t][3*n+3].y)+3*(e[3*t][3*n+2].y+e[3*t+2][3*n].y)+-1*e[3*t][3*n].y)/9}}this.nodes=e,this.colors=s}paintMesh(t,e){let s=(this.nodes.length-1)/3,r=(this.nodes[0].length-1)/3;if(&quot;bilinear&quot;===this.type||s&lt;2||r&lt;2){let n;for(let o=0;o&lt;s;++o)for(let s=0;s&lt;r;++s){let r=[];for(let t=3*o,e=3*o+4;t&lt;e;++t)r.push(this.nodes[t].slice(3*s,3*s+4));let i=[];i.push(this.colors[o].slice(s,s+2)),i.push(this.colors[o+1].slice(s,s+2)),(n=new m(r,i)).paint(t,e)}}else{let n,o,a,h,l,d,u;const x=s,g=r;s++,r++;let w=new Array(s);for(let t=0;t&lt;s;++t){w[t]=new Array(r);for(let e=0;e&lt;r;++e)w[t][e]=[],w[t][e][0]=this.nodes[3*t][3*e],w[t][e][1]=this.colors[t][e]}for(let t=0;t&lt;s;++t)for(let e=0;e&lt;r;++e)0!==t&amp;&amp;t!==x&amp;&amp;(n=i(w[t-1][e][0],w[t][e][0]),o=i(w[t+1][e][0],w[t][e][0]),w[t][e][2]=c(w[t-1][e][1],w[t][e][1],w[t+1][e][1],n,o)),0!==e&amp;&amp;e!==g&amp;&amp;(n=i(w[t][e-1][0],w[t][e][0]),o=i(w[t][e+1][0],w[t][e][0]),w[t][e][3]=c(w[t][e-1][1],w[t][e][1],w[t][e+1][1],n,o));for(let t=0;t&lt;r;++t){w[0][t][2]=[],w[x][t][2]=[];for(let e=0;e&lt;4;++e)n=i(w[1][t][0],w[0][t][0]),o=i(w[x][t][0],w[x-1][t][0]),w[0][t][2][e]=n&gt;0?2*(w[1][t][1][e]-w[0][t][1][e])/n-w[1][t][2][e]:0,w[x][t][2][e]=o&gt;0?2*(w[x][t][1][e]-w[x-1][t][1][e])/o-w[x-1][t][2][e]:0}for(let t=0;t&lt;s;++t){w[t][0][3]=[],w[t][g][3]=[];for(let e=0;e&lt;4;++e)n=i(w[t][1][0],w[t][0][0]),o=i(w[t][g][0],w[t][g-1][0]),w[t][0][3][e]=n&gt;0?2*(w[t][1][1][e]-w[t][0][1][e])/n-w[t][1][3][e]:0,w[t][g][3][e]=o&gt;0?2*(w[t][g][1][e]-w[t][g-1][1][e])/o-w[t][g-1][3][e]:0}for(let s=0;s&lt;x;++s)for(let r=0;r&lt;g;++r){let n=i(w[s][r][0],w[s+1][r][0]),o=i(w[s][r+1][0],w[s+1][r+1][0]),c=i(w[s][r][0],w[s][r+1][0]),x=i(w[s+1][r][0],w[s+1][r+1][0]),g=[[],[],[],[]];for(let t=0;t&lt;4;++t){(d=[])[0]=w[s][r][1][t],d[1]=w[s+1][r][1][t],d[2]=w[s][r+1][1][t],d[3]=w[s+1][r+1][1][t],d[4]=w[s][r][2][t]*n,d[5]=w[s+1][r][2][t]*n,d[6]=w[s][r+1][2][t]*o,d[7]=w[s+1][r+1][2][t]*o,d[8]=w[s][r][3][t]*c,d[9]=w[s+1][r][3][t]*x,d[10]=w[s][r+1][3][t]*c,d[11]=w[s+1][r+1][3][t]*x,d[12]=0,d[13]=0,d[14]=0,d[15]=0,u=f(d);for(let e=0;e&lt;9;++e){g[t][e]=[];for(let s=0;s&lt;9;++s)g[t][e][s]=p(u,e/8,s/8),g[t][e][s]&gt;255?g[t][e][s]=255:g[t][e][s]&lt;0&amp;&amp;(g[t][e][s]=0)}}h=[];for(let t=3*s,e=3*s+4;t&lt;e;++t)h.push(this.nodes[t].slice(3*r,3*r+4));l=y(h);for(let s=0;s&lt;8;++s)for(let r=0;r&lt;8;++r)(a=new m(l[s][r],[[[g[0][s][r],g[1][s][r],g[2][s][r],g[3][s][r]],[g[0][s][r+1],g[1][s][r+1],g[2][s][r+1],g[3][s][r+1]]],[[g[0][s+1][r],g[1][s+1][r],g[2][s+1][r],g[3][s+1][r]],[g[0][s+1][r+1],g[1][s+1][r+1],g[2][s+1][r+1],g[3][s+1][r+1]]]])).paint(t,e)}}}transform(t){if(t instanceof x)for(let e=0,s=this.nodes.length;e&lt;s;++e)for(let s=0,r=this.nodes[0].length;s&lt;r;++s)this.nodes[e][s]=this.nodes[e][s].add(t);else if(t instanceof g)for(let e=0,s=this.nodes.length;e&lt;s;++e)for(let s=0,r=this.nodes[0].length;s&lt;r;++s)this.nodes[e][s]=this.nodes[e][s].transform(t)}scale(t){for(let e=0,s=this.nodes.length;e&lt;s;++e)for(let s=0,r=this.nodes[0].length;s&lt;r;++s)this.nodes[e][s]=this.nodes[e][s].scale(t)}}document.querySelectorAll(&quot;rect,circle,ellipse,path,text&quot;).forEach((r,n)=&gt;{let o=r.getAttribute(&quot;id&quot;);o||(o=&quot;patchjs_shape&quot;+n,r.setAttribute(&quot;id&quot;,o));const i=r.style.fill.match(/^url\(\s*&quot;?\s*#([^\s&quot;]+)&quot;?\s*\)/),a=r.style.stroke.match(/^url\(\s*&quot;?\s*#([^\s&quot;]+)&quot;?\s*\)/);if(i&amp;&amp;i[1]){const a=document.getElementById(i[1]);if(a&amp;&amp;&quot;meshgradient&quot;===a.nodeName){const i=r.getBBox();let l=document.createElementNS(s,&quot;canvas&quot;);d(l,{width:i.width,height:i.height});const c=l.getContext(&quot;2d&quot;);let u=c.createImageData(i.width,i.height);const f=new b(a);&quot;objectBoundingBox&quot;===a.getAttribute(&quot;gradientUnits&quot;)&amp;&amp;f.scale(new x(i.width,i.height));const p=a.getAttribute(&quot;gradientTransform&quot;);null!=p&amp;&amp;f.transform(h(p)),&quot;userSpaceOnUse&quot;===a.getAttribute(&quot;gradientUnits&quot;)&amp;&amp;f.transform(new x(-i.x,-i.y)),f.paintMesh(u.data,l.width),c.putImageData(u,0,0);const y=document.createElementNS(t,&quot;image&quot;);d(y,{width:i.width,height:i.height,x:i.x,y:i.y});let g=l.toDataURL();y.setAttributeNS(e,&quot;xlink:href&quot;,g),r.parentNode.insertBefore(y,r),r.style.fill=&quot;none&quot;;const w=document.createElementNS(t,&quot;use&quot;);w.setAttributeNS(e,&quot;xlink:href&quot;,&quot;#&quot;+o);const m=&quot;patchjs_clip&quot;+n,M=document.createElementNS(t,&quot;clipPath&quot;);M.setAttribute(&quot;id&quot;,m),M.appendChild(w),r.parentElement.insertBefore(M,r),y.setAttribute(&quot;clip-path&quot;,&quot;url(#&quot;+m+&quot;)&quot;),u=null,l=null,g=null}}if(a&amp;&amp;a[1]){const o=document.getElementById(a[1]);if(o&amp;&amp;&quot;meshgradient&quot;===o.nodeName){const i=parseFloat(r.style.strokeWidth.slice(0,-2))*(parseFloat(r.style.strokeMiterlimit)||parseFloat(r.getAttribute(&quot;stroke-miterlimit&quot;))||1),a=r.getBBox(),l=Math.trunc(a.width+i),c=Math.trunc(a.height+i),u=Math.trunc(a.x-i/2),f=Math.trunc(a.y-i/2);let p=document.createElementNS(s,&quot;canvas&quot;);d(p,{width:l,height:c});const y=p.getContext(&quot;2d&quot;);let g=y.createImageData(l,c);const w=new b(o);&quot;objectBoundingBox&quot;===o.getAttribute(&quot;gradientUnits&quot;)&amp;&amp;w.scale(new x(l,c));const m=o.getAttribute(&quot;gradientTransform&quot;);null!=m&amp;&amp;w.transform(h(m)),&quot;userSpaceOnUse&quot;===o.getAttribute(&quot;gradientUnits&quot;)&amp;&amp;w.transform(new x(-u,-f)),w.paintMesh(g.data,p.width),y.putImageData(g,0,0);const M=document.createElementNS(t,&quot;image&quot;);d(M,{width:l,height:c,x:0,y:0});let S=p.toDataURL();M.setAttributeNS(e,&quot;xlink:href&quot;,S);const k=&quot;pattern_clip&quot;+n,A=document.createElementNS(t,&quot;pattern&quot;);d(A,{id:k,patternUnits:&quot;userSpaceOnUse&quot;,width:l,height:c,x:u,y:f}),A.appendChild(M),o.parentNode.appendChild(A),r.style.stroke=&quot;url(#&quot;+k+&quot;)&quot;,g=null,p=null,S=null}}})}();
</script></svg>
