<?xml version="1.0" encoding="UTF-8" standalone="no"?>
<!-- Created with Inkscape (http://www.inkscape.org/) -->

<svg
   width="1024mm"
   height="1024mm"
   viewBox="0 0 1024 1024"
   version="1.1"
   id="svg1"
   xml:space="preserve"
   inkscape:version="1.3.2 (091e20e, 2023-11-25, custom)"
   sodipodi:docname="logo5.svg"
   inkscape:export-filename="embed.png"
   inkscape:export-xdpi="25.4"
   inkscape:export-ydpi="25.4"
   xmlns:inkscape="http://www.inkscape.org/namespaces/inkscape"
   xmlns:sodipodi="http://sodipodi.sourceforge.net/DTD/sodipodi-0.dtd"
   xmlns:xlink="http://www.w3.org/1999/xlink"
   xmlns="http://www.w3.org/2000/svg"
   xmlns:svg="http://www.w3.org/2000/svg"><sodipodi:namedview
     id="namedview1"
     pagecolor="#ffffff"
     bordercolor="#000000"
     borderopacity="0.25"
     inkscape:showpageshadow="2"
     inkscape:pageopacity="0.0"
     inkscape:pagecheckerboard="0"
     inkscape:deskcolor="#d1d1d1"
     inkscape:document-units="mm"
     inkscape:zoom="0.09322937"
     inkscape:cx="1861.0015"
     inkscape:cy="2005.8057"
     inkscape:window-width="1440"
     inkscape:window-height="830"
     inkscape:window-x="-6"
     inkscape:window-y="-6"
     inkscape:window-maximized="1"
     inkscape:current-layer="layer1" /><defs
     id="defs1"><linearGradient
       id="linearGradient2714"
       inkscape:collect="always"><stop
         style="stop-color:#003380;stop-opacity:1;"
         offset="0.2"
         id="stop2714" /><stop
         style="stop-color:#001432;stop-opacity:1;"
         offset="1"
         id="stop2715" /></linearGradient><linearGradient
       id="linearGradient2711"
       inkscape:collect="always"><stop
         style="stop-color:#003380;stop-opacity:1;"
         offset="0.2"
         id="stop2711" /><stop
         style="stop-color:#aaccff;stop-opacity:1"
         offset="1"
         id="stop2712" /></linearGradient><filter
       inkscape:collect="always"
       style="color-interpolation-filters:sRGB"
       id="filter1"
       x="-0.12497798"
       y="-0.11399555"
       width="1.249956"
       height="1.2279911"><feGaussianBlur
         inkscape:collect="always"
         stdDeviation="29.342205"
         id="feGaussianBlur1" /></filter><filter
       inkscape:collect="always"
       style="color-interpolation-filters:sRGB"
       id="filter2"
       x="-0.067105074"
       y="-0.061208223"
       width="1.1342101"
       height="1.1224164"><feGaussianBlur
         inkscape:collect="always"
         stdDeviation="15.754863"
         id="feGaussianBlur2" /></filter><filter
       inkscape:collect="always"
       style="color-interpolation-filters:sRGB"
       id="filter3"
       x="-0.0083591092"
       y="-0.0076245534"
       width="1.0167182"
       height="1.0152491"><feGaussianBlur
         inkscape:collect="always"
         stdDeviation="1.9625434"
         id="feGaussianBlur3" /></filter><linearGradient
       inkscape:collect="always"
       xlink:href="#linearGradient2711"
       id="linearGradient2712"
       x1="507.48715"
       y1="165.76614"
       x2="507.48715"
       y2="-180.46776"
       gradientUnits="userSpaceOnUse" /><linearGradient
       inkscape:collect="always"
       xlink:href="#linearGradient2714"
       id="linearGradient2715"
       x1="518.83911"
       y1="870.16742"
       x2="518.83911"
       y2="1145.4517"
       gradientUnits="userSpaceOnUse" /></defs><g
     inkscape:label="Слой 1"
     inkscape:groupmode="layer"
     id="layer1"><rect
       style="fill:url(#linearGradient2712);fill-opacity:1;stroke-width:1.55141;stroke-linecap:round;stroke-linejoin:round"
       id="rect2"
       width="1024"
       height="1024"
       x="0"
       y="0" /><rect
       style="fill:url(#linearGradient2715);fill-opacity:1;stroke-width:1.86019;stroke-linecap:round;stroke-linejoin:round"
       id="rect2712"
       width="1024"
       height="512"
       x="0"
       y="512" /><g
       id="g2"
       transform="matrix(1.4713776,0,0,1.4713776,-665.10208,-197.4324)"><path
         id="path6"
         style="fill:#0c00f5;stroke-width:17.3119;stroke-linecap:round;stroke-linejoin:round"
         d="m 657.24689,363.47256 145.88198,63.17692 0.56414,202.11715 -145.36971,-73.75665 z"
         sodipodi:nodetypes="ccccc" /><path
         id="rect1"
         style="fill:#0c00f5;stroke-width:10.187;stroke-linecap:round;stroke-linejoin:round"
         d="M 817.30906,427.33903 944.7968,361.47236 943.45956,556.51298 817.3596,627.92631 Z"
         sodipodi:nodetypes="ccccc" /><path
         id="path8"
         style="fill:#0737f2;fill-opacity:1;stroke-width:17.9837;stroke-linecap:round;stroke-linejoin:round"
         d="M 792.54041,294.76915 932.48674,351.21689 808.879,413.3335 670.39525,353.38124 Z"
         sodipodi:nodetypes="ccccc" /><path
         id="path5"
         style="fill:#04ede8;fill-opacity:1;stroke-width:0.741469;filter:url(#filter1)"
         d="m 790.98732,173.27785 c -18.71392,9.34311 -38.18084,17.38552 -57.23665,26.12525 l -146.69536,66.56722 -46.31566,20.98563 c -4.8818,2.1851 -17.97744,7.515 -21.7663,9.82592 l -0.70817,328.76528 c 2.58971,2.45945 17.58175,10.47251 21.57658,12.76141 l 62.21988,35.36321 c 49.98009,28.72355 100.14822,57.13032 150.49094,85.21694 19.00873,10.67496 38.41148,21.78555 57.51605,32.14389 2.47957,-0.0527 7.44571,-3.36973 9.80422,-4.79929 23.65876,-14.50291 47.13312,-29.30494 70.41776,-44.40277 l 94.39264,-59.95335 c 23.80335,-14.79677 47.44415,-29.85404 70.91765,-45.16886 5.3882,-3.49825 10.8171,-6.93237 16.2862,-10.30384 2.8806,-1.79211 7.2734,-4.33843 9.8477,-6.36043 l -0.7749,-333.98165 c -13.1643,-6.08944 -32.0931,-12.82741 -46.0276,-18.19788 L 947.87924,234.42887 833.33953,189.50331 c -5.47506,-2.15177 -39.50805,-16.16773 -42.35221,-16.22546 z m 8.92931,20.68006 h 0.002 l 250.12427,97.78862 c -11.3029,5.94511 -23.3961,11.80477 -34.8563,17.62585 l -68.88844,34.4494 c -38.42072,-15.65001 -77.53756,-30.07933 -116.06057,-45.51061 -10.01664,-4.01283 -20.81012,-8.01054 -30.55072,-12.55722 -0.14012,-30.59881 -0.0617,-61.19872 0.2298,-91.79604 z m -17.54167,1.61183 c 0.14292,0.18468 0.28472,0.36857 0.42709,0.55322 0.19336,22.10744 0.13451,70.16832 0.14852,90.3739 -14.76364,7.77433 -32.61161,16.07004 -47.7858,23.38962 -17.00417,8.303 -34.18068,16.24648 -51.51917,23.82408 -8.46243,3.79264 -17.7611,8.19651 -26.27453,11.66659 -7.25235,-2.57586 -16.07965,-6.55335 -23.32304,-9.57684 l -50.01007,-21.21447 c -10.48381,-4.53463 -22.33238,-9.00579 -32.53202,-13.84462 z m 10.16461,99.19916 139.94688,56.44731 -123.60689,62.11695 -138.48403,-59.95192 z m 270.28903,9.81579 0.157,0.15217 c 0.4013,1.19674 0.2816,10.69329 0.3127,12.92361 0.2382,19.51535 0.3327,39.03182 0.2839,58.54862 l 0.3214,226.39316 c -23.6411,-11.65146 -48.1621,-22.33205 -71.80826,-33.9049 l -34.10474,-16.098 -0.39682,-194.74889 z m -526.32479,8.13447 c 36.21158,15.13019 72.26399,30.6523 108.14293,46.56056 l -0.3447,192.83439 -38.43753,20.58592 c -17.84125,9.36181 -35.44821,19.27552 -53.24406,28.73196 -5.54792,2.94735 -11.26764,6.02184 -16.58744,9.34659 l 0.2438,-215.01911 c 0.13732,-27.52387 -0.26342,-55.58096 0.227,-83.04031 z m 408.29362,48.75311 -1.33815,195.04142 -126.09907,71.41285 -0.0504,-200.58798 z m -287.54995,1.99994 145.88126,63.17701 0.56497,197.1471 -145.37038,-68.78587 z m 292.18261,204.38075 c 33.67961,16.80825 69.27881,32.09695 102.86011,49.27013 L 882.79782,725.50372 c -5.70795,3.39223 -11.57899,7.44504 -17.27544,11.00185 l -46.26802,28.76817 -0.37357,-121.65468 z m -298.25767,0.26931 v 0 c -10e-4,5.3e-4 -0.002,9e-4 0,0.001 50.63502,25.43019 100.96597,51.46357 150.98333,78.08896 V 766.8189 C 780.68651,754.35553 759.08163,742.126 737.34532,730.13495 674.55263,695.05842 612.01775,659.52213 549.74602,623.52833 l 58.13594,-31.95271 c 14.58204,-7.89839 28.79557,-15.29274 43.29046,-23.45189 -10e-4,-7e-4 0,-7.9e-4 0,-10e-4 z" /><path
         id="path1"
         style="fill:#04ede8;fill-opacity:1;stroke-width:0.741469;filter:url(#filter2)"
         d="m 790.98732,173.27785 c -18.71392,9.34311 -38.18084,17.38552 -57.23665,26.12525 l -146.69536,66.56722 -46.31566,20.98563 c -4.8818,2.1851 -17.97744,7.515 -21.7663,9.82592 l -0.70817,328.76528 c 2.58971,2.45945 17.58175,10.47251 21.57658,12.76141 l 62.21988,35.36321 c 49.98009,28.72355 100.14822,57.13032 150.49094,85.21694 19.00873,10.67496 38.41148,21.78555 57.51605,32.14389 2.47957,-0.0527 7.44571,-3.36973 9.80422,-4.79929 23.65876,-14.50291 47.13312,-29.30494 70.41776,-44.40277 l 94.39264,-59.95335 c 23.80335,-14.79677 47.44415,-29.85404 70.91765,-45.16886 5.3882,-3.49825 10.8171,-6.93237 16.2862,-10.30384 2.8806,-1.79211 7.2734,-4.33843 9.8477,-6.36043 l -0.7749,-333.98165 c -13.1643,-6.08944 -32.0931,-12.82741 -46.0276,-18.19788 L 947.87924,234.42887 833.33953,189.50331 c -5.47506,-2.15177 -39.50805,-16.16773 -42.35221,-16.22546 z m 8.92931,20.68006 h 0.002 l 250.12427,97.78862 c -11.3029,5.94511 -23.3961,11.80477 -34.8563,17.62585 l -68.88844,34.4494 c -38.42072,-15.65001 -77.53756,-30.07933 -116.06057,-45.51061 -10.01664,-4.01283 -20.81012,-8.01054 -30.55072,-12.55722 -0.14012,-30.59881 -0.0617,-61.19872 0.2298,-91.79604 z m -17.54167,1.61183 c 0.14292,0.18468 0.28472,0.36857 0.42709,0.55322 0.19336,22.10744 0.13451,70.16832 0.14852,90.3739 -14.76364,7.77433 -32.61161,16.07004 -47.7858,23.38962 -17.00417,8.303 -34.18068,16.24648 -51.51917,23.82408 -8.46243,3.79264 -17.7611,8.19651 -26.27453,11.66659 -7.25235,-2.57586 -16.07965,-6.55335 -23.32304,-9.57684 l -50.01007,-21.21447 c -10.48381,-4.53463 -22.33238,-9.00579 -32.53202,-13.84462 z m 10.16461,99.19916 139.94688,56.44731 -123.60689,62.11695 -138.48403,-59.95192 z m 270.28903,9.81579 0.157,0.15217 c 0.4013,1.19674 0.2816,10.69329 0.3127,12.92361 0.2382,19.51535 0.3327,39.03182 0.2839,58.54862 l 0.3214,226.39316 c -23.6411,-11.65146 -48.1621,-22.33205 -71.80826,-33.9049 l -34.10474,-16.098 -0.39682,-194.74889 z m -526.32479,8.13447 c 36.21158,15.13019 72.26399,30.6523 108.14293,46.56056 l -0.3447,192.83439 -38.43753,20.58592 c -17.84125,9.36181 -35.44821,19.27552 -53.24406,28.73196 -5.54792,2.94735 -11.26764,6.02184 -16.58744,9.34659 l 0.2438,-215.01911 c 0.13732,-27.52387 -0.26342,-55.58096 0.227,-83.04031 z m 408.29362,48.75311 -1.33815,195.04142 -126.09907,71.41285 -0.0504,-200.58798 z m -287.54995,1.99994 145.88126,63.17701 0.56497,197.1471 -145.37038,-68.78587 z m 292.18261,204.38075 c 33.67961,16.80825 69.27881,32.09695 102.86011,49.27013 L 882.79782,725.50372 c -5.70795,3.39223 -11.57899,7.44504 -17.27544,11.00185 l -46.26802,28.76817 -0.37357,-121.65468 z m -298.25767,0.26931 v 0 c -10e-4,5.3e-4 -0.002,9e-4 0,0.001 50.63502,25.43019 100.96597,51.46357 150.98333,78.08896 V 766.8189 C 780.68651,754.35553 759.08163,742.126 737.34532,730.13495 674.55263,695.05842 612.01775,659.52213 549.74602,623.52833 l 58.13594,-31.95271 c 14.58204,-7.89839 28.79557,-15.29274 43.29046,-23.45189 -10e-4,-7e-4 0,-7.9e-4 0,-10e-4 z" /><path
         id="path2"
         style="fill:#e6fefe;fill-opacity:1;stroke-width:0.741469;filter:url(#filter3)"
         d="m 790.98732,173.27785 c -18.71392,9.34311 -38.18084,17.38552 -57.23665,26.12525 l -146.69536,66.56722 -46.31566,20.98563 c -4.8818,2.1851 -17.97744,7.515 -21.7663,9.82592 l -0.70817,328.76528 c 2.58971,2.45945 17.58175,10.47251 21.57658,12.76141 l 62.21988,35.36321 c 49.98009,28.72355 100.14822,57.13032 150.49094,85.21694 19.00873,10.67496 38.41148,21.78555 57.51605,32.14389 2.47957,-0.0527 7.44571,-3.36973 9.80422,-4.79929 23.65876,-14.50291 47.13312,-29.30494 70.41776,-44.40277 l 94.39264,-59.95335 c 23.80335,-14.79677 47.44415,-29.85404 70.91765,-45.16886 5.3882,-3.49825 10.8171,-6.93237 16.2862,-10.30384 2.8806,-1.79211 7.2734,-4.33843 9.8477,-6.36043 l -0.7749,-333.98165 c -13.1643,-6.08944 -32.0931,-12.82741 -46.0276,-18.19788 L 947.87924,234.42887 833.33953,189.50331 c -5.47506,-2.15177 -39.50805,-16.16773 -42.35221,-16.22546 z m 8.92931,20.68006 h 0.002 l 250.12427,97.78862 c -11.3029,5.94511 -23.3961,11.80477 -34.8563,17.62585 l -68.88844,34.4494 c -38.42072,-15.65001 -77.53756,-30.07933 -116.06057,-45.51061 -10.01664,-4.01283 -20.81012,-8.01054 -30.55072,-12.55722 -0.14012,-30.59881 -0.0617,-61.19872 0.2298,-91.79604 z m -17.54167,1.61183 c 0.14292,0.18468 0.28472,0.36857 0.42709,0.55322 0.19336,22.10744 0.13451,70.16832 0.14852,90.3739 -14.76364,7.77433 -32.61161,16.07004 -47.7858,23.38962 -17.00417,8.303 -34.18068,16.24648 -51.51917,23.82408 -8.46243,3.79264 -17.7611,8.19651 -26.27453,11.66659 -7.25235,-2.57586 -16.07965,-6.55335 -23.32304,-9.57684 l -50.01007,-21.21447 c -10.48381,-4.53463 -22.33238,-9.00579 -32.53202,-13.84462 z m 10.16461,99.19916 139.94688,56.44731 -123.60689,62.11695 -138.48403,-59.95192 z m 270.28903,9.81579 0.157,0.15217 c 0.4013,1.19674 0.2816,10.69329 0.3127,12.92361 0.2382,19.51535 0.3327,39.03182 0.2839,58.54862 l 0.3214,226.39316 c -23.6411,-11.65146 -48.1621,-22.33205 -71.80826,-33.9049 l -34.10474,-16.098 -0.39682,-194.74889 z m -526.32479,8.13447 c 36.21158,15.13019 72.26399,30.6523 108.14293,46.56056 l -0.3447,192.83439 -38.43753,20.58592 c -17.84125,9.36181 -35.44821,19.27552 -53.24406,28.73196 -5.54792,2.94735 -11.26764,6.02184 -16.58744,9.34659 l 0.2438,-215.01911 c 0.13732,-27.52387 -0.26342,-55.58096 0.227,-83.04031 z m 408.29362,48.75311 -1.33815,195.04142 -126.09907,71.41285 -0.0504,-200.58798 z m -287.54995,1.99994 145.88126,63.17701 0.56497,197.1471 -145.37038,-68.78587 z m 292.18261,204.38075 c 33.67961,16.80825 69.27881,32.09695 102.86011,49.27013 L 882.79782,725.50372 c -5.70795,3.39223 -11.57899,7.44504 -17.27544,11.00185 l -46.26802,28.76817 -0.37357,-121.65468 z m -298.25767,0.26931 v 0 c -10e-4,5.3e-4 -0.002,9e-4 0,0.001 50.63502,25.43019 100.96597,51.46357 150.98333,78.08896 V 766.8189 C 780.68651,754.35553 759.08163,742.126 737.34532,730.13495 674.55263,695.05842 612.01775,659.52213 549.74602,623.52833 l 58.13594,-31.95271 c 14.58204,-7.89839 28.79557,-15.29274 43.29046,-23.45189 -10e-4,-7e-4 0,-7.9e-4 0,-10e-4 z" /></g></g></svg>
